<?xml version="1.0" encoding="utf-8"?>
<!-- Generator: Adobe Illustrator 28.2.0, SVG Export Plug-In . SVG Version: 6.00 Build 0)  -->
<svg version="1.1" id="Layer_1" xmlns="http://www.w3.org/2000/svg" xmlns:xlink="http://www.w3.org/1999/xlink" x="0px" y="0px"
	 viewBox="0 0 1920 1064.97" style="enable-background:new 0 0 1920 1064.97;" xml:space="preserve">
<style type="text/css">
	.st0{fill:#DEF203;}
</style>
<g>
	<polygon class="st0" points="1920.79,1064.97 0.79,1064.97 0.79,553.8 1799.04,553.8 1920.79,588.78 	"/>
	<g>
		<path d="M530.24,0v38.03H149.89v321.01l380.35,229.73v247.99c-5.08,71.01-27.65,126.8-67.7,167.35
			c-40.08,40.58-105.74,60.86-197.02,60.86c-45.64,0-84.7-5.56-117.15-16.73c-32.47-11.15-59.1-26.62-79.87-46.4
			c-20.8-19.78-36.52-43.86-47.16-72.27c-10.65-28.39-17.49-59.34-20.54-92.81h149.1c-1.02,28.41-1.78,55.53-2.28,81.4
			c-0.52,25.86,2.52,48.45,9.13,67.7c6.59,19.28,18,34.49,34.23,45.64c16.21,11.17,41.08,16.74,74.55,16.74s58.31-5.56,74.55-16.74
			c16.21-11.15,27.39-26.36,33.47-45.64c6.09-19.26,8.87-41.84,8.37-67.7c-0.52-25.86-3.8-364.37-3.8-364.37L0.79,322.54V0H530.24z"
			/>
		<path d="M1225.51,0v38.03H845.17v321.01l380.35,229.73v247.99c-5.08,71.01-27.65,126.8-67.7,167.35
			c-40.08,40.58-105.74,60.86-197.02,60.86c-45.64,0-84.7-5.56-117.15-16.73c-32.47-11.15-59.1-26.62-79.87-46.4
			c-20.8-19.78-36.52-43.86-47.16-72.27c-10.65-28.39-17.49-59.34-20.54-92.81h149.1c-1.02,28.41-1.78,55.53-2.28,81.4
			c-0.52,25.86,2.52,48.45,9.13,67.7c6.59,19.28,18,34.49,34.23,45.64c16.21,11.17,41.08,16.74,74.55,16.74
			c33.47,0,58.31-5.56,74.55-16.74c16.21-11.15,27.39-26.36,33.47-45.64c6.09-19.26,8.87-41.84,8.37-67.7
			c-0.52-25.86-3.8-364.37-3.8-364.37L693.03,322.54V0H1225.51z"/>
		<path d="M1920.79,0v38.03h-380.35v321.01l380.35,229.73v247.99c-5.08,71.01-27.65,126.8-67.7,167.35
			c-40.08,40.58-105.74,60.86-197.02,60.86c-45.64,0-84.7-5.56-117.15-16.73c-32.47-11.15-59.1-26.62-79.87-46.4
			c-20.8-19.78-36.52-43.86-47.16-72.27c-10.65-28.39-17.49-59.34-20.54-92.81h149.09c-1.02,28.41-1.78,55.53-2.28,81.4
			c-0.52,25.86,2.52,48.45,9.13,67.7c6.58,19.28,17.99,34.49,34.23,45.64c16.21,11.17,41.08,16.74,74.55,16.74
			s58.31-5.56,74.55-16.74c16.21-11.15,27.39-26.36,33.47-45.64c6.08-19.26,8.87-41.84,8.36-67.7c-0.52-25.86-3.8-364.37-3.8-364.37
			L1388.3,322.54V0H1920.79z"/>
	</g>
</g>
</svg>
