<?xml version="1.0" encoding="utf-8"?>
<!-- Generator: Adobe Illustrator 28.1.0, SVG Export Plug-In . SVG Version: 6.00 Build 0)  -->
<svg version="1.1" id="Layer_1" xmlns="http://www.w3.org/2000/svg" xmlns:xlink="http://www.w3.org/1999/xlink" x="0px" y="0px"
	 viewBox="0 0 1500 700" style="enable-background:new 0 0 1500 700;" xml:space="preserve">
<style type="text/css">
	.st0{enable-background:new    ;}
	.st1{fill:#FFFFFF;}
</style>
<g>
	<g class="st0">
		<path class="st1" d="M4.2,0.9h5.2C9,2.5,8.6,3.9,8.5,5.2c0,1.1,0.1,2.1,0.4,2.9c0.3,1,1,1.4,2.2,1.4h5.2v12.2H4.2V0.9z M26.9,0.9
			C26.5,2.5,26.1,4,26,5.3c0,1.1,0.1,2.1,0.4,2.9c0.3,1,1,1.4,2.2,1.4h5.2v12.2H21.6v-21h5.3V0.9z"/>
		<path class="st1" d="M68.4,0v122.3H50.9V0H68.4z"/>
		<path class="st1" d="M146.2,54.5h-36v67.8H92.8V0H154v4.4h-43.7v45.8h36v4.4h-0.1V54.5z"/>
		<path class="st1" d="M233.8,4.4v46l36-0.2v4.4h-36V118h43.7v4.4h-61.2V0h61.2v4.4H233.8z"/>
		<path class="st1" d="M284.5,0H302l28.5,114.7L358.8,0h4.4l-30.6,122.3h-17.5L284.5,0z"/>
		<path class="st1" d="M396,4.4v46l36-0.2v4.4h-36V118h43.7v4.4h-61.2V0h61.2v4.4H396z"/>
		<path class="st1" d="M490.5,69.6c-1.4,0.2-2.8,0.3-4.3,0.3c-1.4,0-2.8,0-4.3,0h-8.7v52.4h-17.5V0H482c29.2,0,43.7,11.7,43.7,34.9
			c0,15.5-6.4,25.8-19.4,30.9l28.2,56.5H517L490.5,69.6z M485.5,67.6c0.1,0,0.2,0,0.2-0.1c0.1-0.1,0.1-0.1,0.2-0.1h1.2
			c0.1-0.1,0.3-0.2,0.5-0.2c1.4-0.2,2.5-0.4,3.5-0.7h0.3c0.2-0.1,0.5-0.2,0.9-0.2c0.3-0.1,0.7-0.2,0.9-0.4c0.2-0.1,0.5-0.2,0.9-0.2
			c0.3-0.1,0.7-0.2,0.9-0.4c4.9-2,8.3-5.1,10.3-9.4s2.8-9,2.8-13.8V28c0-8.4-2.3-14.7-6.8-19.2s-11-6.7-19.4-6.7h-8.7v65.5h8.7h1.7
			h0.5H485.5z"/>
		<path class="st1" d="M607,0l-27.4,54.5v67.8h-17.5V54.5L534.9,0h17.5l25.1,50.1L602.7,0H607z"/>
		<path class="st1" d="M608.3,0H687v4.4h-30.6v118h-17.5V4.4h-30.6L608.3,0L608.3,0z"/>
		<path class="st1" d="M760.7,0h17.5v122.3h-17.5V54.5H717v67.8h-17.5V0H717v50.1h43.7V0z"/>
		<path class="st1" d="M820.1,0v122.3h-17.5V0H820.1z"/>
		<path class="st1" d="M923.2,0v122.3h-8.7L849,27.1v95.2h-4.4V0h8.7l65.5,95.2V0H923.2z"/>
		<path class="st1" d="M981,122.3c-10.6,0-18.9-2.4-25-7.2c-6-4.8-9.4-11.1-9.9-19V26.2c0.5-7.8,3.9-14.1,9.9-19
			c6-4.8,14.4-7.2,25-7.2s18.9,2.3,25,6.8c6,4.6,9.4,11,9.9,19.4h-17.3c0.1-3.3,0-6.3-0.3-9.4c-0.3-2.9-1.2-5.6-2.4-7.8
			c-1.3-2.2-3.2-3.9-5.5-5.2c-2.4-1.3-5.5-2-9.4-2c-3.8,0-6.9,0.7-9.3,2c-2.3,1.3-4.2,3.1-5.5,5.2c-1.3,2.2-2.1,4.8-2.4,7.8
			s-0.4,6.1-0.3,9.4v69.9c-0.1,3.3,0,6.3,0.3,9.4c0.3,2.9,1.2,5.6,2.4,7.8c1.3,2.2,3.1,3.9,5.5,5.2c2.3,1.3,5.5,2,9.3,2s7-0.7,9.4-2
			s4.3-3.1,5.5-5.2c1.3-2.2,2.1-4.8,2.4-7.8s0.4-6.1,0.3-9.4V72h-13.3v-4.4h30.6v28.5c-0.5,8.3-3.9,14.7-9.9,19.3
			C1000,120,991.6,122.3,981,122.3z"/>
		<path class="st1" d="M1080.9,26.2c0.5-8.3,3.2-14.7,7.9-19.3c4.7-4.6,12.2-6.9,22.7-6.9c5.2,0,9.7,0.7,13.3,2
			c3.7,1.3,6.7,3.1,9.1,5.4s4.2,5,5.5,8.3c1.2,3.3,2,6.8,2.4,10.7h-16.3c0.1-3.3,0.2-6.3,0.2-9.4c0-2.9-0.4-5.6-1.2-7.8
			c-0.8-2.2-2.2-3.9-4.2-5.2s-4.9-2-8.7-2c-3.7,0-6.6,1.2-8.4,3.7c-1.9,2.5-3.2,5.2-3.8,8.3c-0.8,3.6-1.1,7.6-0.9,12.2v29.1
			l43.7,12.5v28.4c-0.3,3.8-1.1,7.4-2.4,10.7c-1.2,3.3-3.1,6-5.5,8.3s-5.6,4-9.3,5.4c-3.7,1.3-8.2,2-13.4,2c-10.5,0-18-2.3-22.6-7
			s-7.2-11-7.8-19.2h15.5c-0.1,3.3-0.1,6.3,0,9.3c0.1,2.9,0.7,5.5,1.5,7.6c1,2.2,2.4,3.8,4.5,5.1c2.1,1.3,5,2,8.8,2s6.7-1.2,8.5-3.7
			c1.9-2.5,3.1-5.2,3.7-8.3c0.8-3.5,1.1-7.4,0.9-11.9V67.1L1081,54.5L1080.9,26.2L1080.9,26.2z"/>
		<path class="st1" d="M1180.4,4.4v46l36-0.2v4.4h-36V118h43.7v4.4H1163V0h61.2v4.4H1180.4z"/>
		<path class="st1" d="M1257.6,4.4v46l36-0.2v4.4h-36V118h43.7v4.4h-61.2V0h61.2v4.4H1257.6z"/>
		<path class="st1" d="M1369.8,122.3h-17.5l-30.6-107.1v107.1h-4.4V0h17.5l32.9,114.7L1400.4,0h17.5v122.3h-17.5V15.2L1369.8,122.3z
			"/>
		<path class="st1" d="M1438.7,26.2c0.5-8.3,3.2-14.7,7.9-19.3c4.7-4.6,12.2-6.9,22.7-6.9c5.2,0,9.7,0.7,13.3,2
			c3.7,1.3,6.7,3.1,9.1,5.4s4.2,5,5.5,8.3c1.2,3.3,2,6.8,2.4,10.7h-16.3c0.1-3.3,0.2-6.3,0.2-9.4c0-2.9-0.4-5.6-1.2-7.8
			c-0.8-2.2-2.2-3.9-4.2-5.2s-4.9-2-8.7-2c-3.7,0-6.6,1.2-8.4,3.7c-1.9,2.5-3.2,5.2-3.8,8.3c-0.8,3.6-1.1,7.6-0.9,12.2v29.1
			l43.7,12.5v28.4c-0.3,3.8-1.1,7.4-2.4,10.7c-1.2,3.3-3.1,6-5.5,8.3s-5.6,4-9.3,5.4c-3.7,1.3-8.2,2-13.4,2c-10.5,0-18-2.3-22.6-7
			s-7.2-11-7.8-19.2h15.5c-0.1,3.3-0.1,6.3,0,9.3c0.1,2.9,0.7,5.5,1.5,7.6c1,2.2,2.4,3.8,4.5,5.1c2.1,1.3,5,2,8.8,2s6.7-1.2,8.5-3.7
			c1.9-2.5,3.1-5.2,3.7-8.3c0.8-3.5,1.1-7.4,0.9-11.9V67.1l-43.7-12.6L1438.7,26.2L1438.7,26.2z"/>
	</g>
	<g class="st0">
		<path class="st1" d="M75.7,148.5h4.4v87.4c0,4.8-0.9,9.3-2.7,13.5c-1.9,4.3-4.3,8-7.4,11.1c-3.2,3.2-6.9,5.7-11.1,7.5
			c-4.4,2-9,3-13.9,3c-4.8,0-9.3-1-13.5-2.8c-4.3-1.9-8-4.4-11.1-7.5c-3.2-3.2-5.7-6.9-7.5-11.1c-1.9-4.3-2.8-8.7-2.8-13.5v-87.4
			h17.5v87.4c0,3.9,0.3,7.8,1.1,11.5c0.8,3.7,1.7,6.9,3.3,9.8c1.4,2.8,3.3,5.1,5.5,6.8s4.8,2.5,7.6,2.5c4.7,0,8.8-0.9,12.7-2.5
			s7-3.9,9.6-6.8c2.6-2.8,4.7-6.1,6.1-9.8s2.2-7.5,2.2-11.5v-87.4l0,0V148.5z"/>
		<path class="st1" d="M182,148.5v122.3h-8.7l-65.5-95.2v95.2h-4.4V148.5h8.7l65.5,95.2v-95.2H182z"/>
		<path class="st1" d="M241.4,148.5c7.2,0,13.5,1.4,19,4.2c5.5,2.7,10,6.4,13.8,11.1c3.7,4.7,6.4,10.3,8.2,16.7
			c1.9,6.4,2.7,13.2,2.7,20.4v17.5c0,7.2-0.9,14.1-2.7,20.4c-1.9,6.4-4.6,12-8.2,16.7c-3.7,4.7-8.2,8.4-13.8,11.1
			c-5.5,2.7-11.8,4.2-19,4.2h-34.9V148.5H241.4z M265.4,183.5c0-4.2-0.4-8.3-1.4-12.2s-2.4-7.5-4.3-10.6c-2-3.1-4.5-5.6-7.5-7.3
			c-3.1-1.9-6.8-2.7-10.9-2.7h-17.5v118h17.5c4.2,0,7.9-0.9,10.9-2.7s5.6-4.3,7.5-7.2c2-3.1,3.4-6.6,4.3-10.5
			c1-3.9,1.4-8.1,1.4-12.2V183.5z"/>
		<path class="st1" d="M323.3,152.9v46l36-0.2v4.4h-36v63.5H367v4.4h-61.2V148.5H367v4.4H323.3z"/>
		<path class="st1" d="M417.9,218.1c-1.4,0.2-2.8,0.3-4.3,0.3c-1.4,0-2.8,0-4.3,0h-8.7v52.4h-17.5V148.5h26.2
			c29.2,0,43.7,11.7,43.7,34.9c0,15.5-6.4,25.8-19.4,30.9l28.2,56.5h-17.5L417.9,218.1z M412.7,216.1c0.1,0,0.2,0,0.2-0.1
			c0.1-0.1,0.1-0.1,0.2-0.1h1.2c0.1-0.1,0.3-0.2,0.5-0.2c1.4-0.2,2.5-0.4,3.5-0.7h0.3c0.2-0.1,0.5-0.2,0.9-0.2
			c0.3-0.1,0.7-0.2,0.9-0.4c0.2-0.1,0.5-0.2,0.9-0.2c0.3-0.1,0.7-0.2,0.9-0.4c4.9-2,8.3-5.1,10.3-9.4c2-4.3,2.8-9,2.8-13.8v-14
			c0-8.4-2.3-14.7-6.8-19.2s-11-6.7-19.4-6.7h-8.7v65.5h8.7h1.7h0.5h1.3v-0.1H412.7z"/>
		<path class="st1" d="M559.5,270.9c-10.6,0-18.9-2.4-25-7.2c-6-4.8-9.4-11.1-9.9-19v-69.9c0.5-7.8,3.9-14.1,9.9-19
			c6-4.8,14.4-7.2,25-7.2s18.9,2.3,25,6.8c6,4.6,9.4,11,9.9,19.4h-17.3c0.1-3.3,0-6.3-0.3-9.4c-0.3-2.9-1.2-5.6-2.4-7.8
			c-1.3-2.2-3.2-3.9-5.5-5.2c-2.4-1.3-5.5-2-9.4-2c-3.8,0-6.9,0.7-9.3,2c-2.3,1.3-4.2,3.1-5.5,5.2c-1.3,2.2-2.1,4.8-2.4,7.8
			c-0.3,2.9-0.4,6.1-0.3,9.4v69.9c-0.1,3.3,0,6.3,0.3,9.4c0.3,2.9,1.2,5.6,2.4,7.8c1.3,2.2,3.1,3.9,5.5,5.2c2.3,1.3,5.5,2,9.3,2
			s7-0.7,9.4-2s4.3-3.1,5.5-5.2c1.3-2.2,2.1-4.8,2.4-7.8c0.3-2.9,0.4-6.1,0.3-9.4h17.3c-0.5,8.3-3.9,14.7-9.9,19.3
			C578.4,268.6,570.1,270.9,559.5,270.9z"/>
		<path class="st1" d="M608.3,201c0-7.2,0.9-14.1,2.7-20.4c1.9-6.4,4.6-12,8.2-16.7c3.7-4.7,8.2-8.4,13.8-11.1
			c5.5-2.7,11.8-4.2,19-4.2s13.5,1.4,19,4.2c5.5,2.7,10,6.4,13.8,11.1c3.7,4.7,6.4,10.3,8.2,16.7c1.9,6.4,2.7,13.2,2.7,20.4v17.5
			c0,7.2-0.9,14.1-2.7,20.4c-1.9,6.4-4.6,12-8.2,16.7c-3.7,4.7-8.2,8.4-13.8,11.1c-5.5,2.7-11.8,4.2-19,4.2s-13.5-1.4-19-4.2
			c-5.5-2.7-10-6.4-13.8-11.1c-3.7-4.7-6.4-10.3-8.2-16.7c-1.9-6.4-2.7-13.2-2.7-20.4V201z M628,235.9c0,4.2,0.4,8.3,1.4,12.2
			s2.4,7.4,4.3,10.5c2,3.1,4.4,5.5,7.4,7.2c3.1,1.9,6.7,2.7,10.8,2.7s7.9-0.9,10.9-2.7s5.6-4.3,7.5-7.2c2-3.1,3.4-6.6,4.3-10.5
			c1-3.9,1.4-8.1,1.4-12.2v-52.4c0-4.2-0.4-8.3-1.4-12.2s-2.4-7.5-4.3-10.6c-2-3.1-4.5-5.6-7.5-7.3c-3.1-1.9-6.8-2.7-10.9-2.7
			s-7.8,0.9-10.8,2.7c-3.1,1.9-5.5,4.3-7.4,7.3c-2,3.1-3.4,6.7-4.3,10.6c-1,3.9-1.4,8.1-1.4,12.2V235.9z"/>
		<path class="st1" d="M795.1,148.5v122.3h-8.7l-65.5-95.2v95.2h-4.4V148.5h8.7l65.5,95.2v-95.2H795.1z"/>
		<path class="st1" d="M807.7,148.5h78.6v4.4h-30.6v118h-17.5v-118h-30.6L807.7,148.5L807.7,148.5z"/>
		<path class="st1" d="M933.7,218.1c-1.4,0.2-2.8,0.3-4.3,0.3s-2.8,0-4.3,0h-8.7v52.4H899V148.5h26.2c29.2,0,43.7,11.7,43.7,34.9
			c0,15.5-6.4,25.8-19.4,30.9l28.1,56.5H960L933.7,218.1z M928.6,216.1c0.1,0,0.2,0,0.2-0.1c0.1-0.1,0.1-0.1,0.2-0.1h1.2
			c0.1-0.1,0.3-0.2,0.5-0.2c1.4-0.2,2.5-0.4,3.5-0.7h0.3c0.2-0.1,0.5-0.2,0.9-0.2c0.3-0.1,0.7-0.2,0.9-0.4c0.2-0.1,0.5-0.2,0.9-0.2
			c0.3-0.1,0.7-0.2,0.9-0.4c4.9-2,8.3-5.1,10.3-9.4c2-4.3,2.8-9,2.8-13.8v-14c0-8.4-2.3-14.7-6.8-19.2s-11-6.7-19.4-6.7h-8.7v65.5
			h8.7h1.7h0.5h1.3L928.6,216.1L928.6,216.1z"/>
		<path class="st1" d="M988.3,201c0-7.2,0.9-14.1,2.7-20.4c1.9-6.4,4.6-12,8.2-16.7c3.7-4.7,8.2-8.4,13.8-11.1
			c5.5-2.7,11.8-4.2,19-4.2s13.5,1.4,19,4.2c5.5,2.7,10,6.4,13.8,11.1c3.7,4.7,6.4,10.3,8.2,16.7c1.9,6.4,2.7,13.2,2.7,20.4v17.5
			c0,7.2-0.9,14.1-2.7,20.4c-1.9,6.4-4.6,12-8.2,16.7c-3.7,4.7-8.2,8.4-13.8,11.1c-5.5,2.7-11.8,4.2-19,4.2s-13.5-1.4-19-4.2
			c-5.5-2.7-10-6.4-13.8-11.1c-3.7-4.7-6.4-10.3-8.2-16.7c-1.9-6.4-2.7-13.2-2.7-20.4V201z M1008.1,235.9c0,4.2,0.4,8.3,1.4,12.2
			s2.4,7.4,4.3,10.5c2,3.1,4.4,5.5,7.4,7.2c3.1,1.9,6.7,2.7,10.8,2.7s7.9-0.9,10.9-2.7s5.6-4.3,7.5-7.2c2-3.1,3.4-6.6,4.3-10.5
			c1-3.9,1.4-8.1,1.4-12.2v-52.4c0-4.2-0.4-8.3-1.4-12.2s-2.4-7.5-4.3-10.6c-2-3.1-4.5-5.6-7.5-7.3c-3.1-1.9-6.8-2.7-10.9-2.7
			s-7.8,0.9-10.8,2.7c-3.1,1.9-5.5,4.3-7.4,7.3c-2,3.1-3.4,6.7-4.3,10.6c-1,3.9-1.4,8.1-1.4,12.2V235.9z"/>
		<path class="st1" d="M1096.5,270.9V148.5h17.5v118h43.7v4.4H1096.5z"/>
		<path class="st1" d="M1161.5,260.4h12.2v21h-5.2c0.4-1.6,0.8-3.1,0.9-4.4c0.1-1.1,0-2.1-0.2-2.9c-0.3-1-1.1-1.4-2.4-1.4h-5.2
			v-12.3H1161.5z"/>
	</g>
	<g class="st0">
		<path class="st1" d="M72.2,297.1l-27.4,54.5v67.8H27.3v-67.8L0,297.1h17.5l25.1,50.1l25.1-50.1H72.2z"/>
		<path class="st1" d="M77.2,349.5c0-7.2,0.9-14.1,2.7-20.4c1.9-6.4,4.6-12,8.2-16.7c3.7-4.7,8.2-8.4,13.8-11.1
			c5.5-2.7,11.8-4.2,19-4.2s13.5,1.4,19,4.2c5.5,2.7,10,6.4,13.8,11.1c3.7,4.7,6.4,10.3,8.2,16.7c1.9,6.4,2.7,13.2,2.7,20.4V367
			c0,7.2-0.9,14.1-2.7,20.4c-1.9,6.4-4.6,12-8.2,16.7c-3.7,4.7-8.2,8.4-13.8,11.1c-5.5,2.7-11.8,4.2-19,4.2s-13.5-1.4-19-4.2
			c-5.5-2.7-10-6.4-13.8-11.1c-3.7-4.7-6.4-10.3-8.2-16.7c-1.9-6.4-2.7-13.2-2.7-20.4V349.5z M97,384.4c0,4.2,0.4,8.3,1.4,12.2
			s2.4,7.4,4.3,10.5c2,3.1,4.4,5.5,7.4,7.2c3.1,1.9,6.7,2.7,10.8,2.7c4.2,0,7.9-0.9,10.9-2.7c3.1-1.9,5.6-4.3,7.5-7.2
			c2-3.1,3.4-6.6,4.3-10.5c1-3.9,1.4-8.1,1.4-12.2V332c0-4.2-0.4-8.3-1.4-12.2c-1-3.9-2.4-7.5-4.3-10.6c-2-3.1-4.5-5.6-7.5-7.3
			c-3.1-1.9-6.8-2.7-10.9-2.7c-4.2,0-7.8,0.9-10.8,2.7c-3.1,1.9-5.5,4.3-7.4,7.3c-2,3.1-3.4,6.7-4.3,10.6c-1,3.9-1.4,8.1-1.4,12.2
			C97,332,97,384.4,97,384.4z"/>
		<path class="st1" d="M249.7,297.1h4.4v87.4c0,4.8-0.9,9.3-2.7,13.5s-4.3,8-7.4,11.1c-3.2,3.2-6.9,5.7-11.1,7.5
			c-4.3,1.9-8.8,2.8-13.8,2.8c-4.8,0-9.3-1-13.5-2.8c-4.3-1.9-8-4.4-11.1-7.5c-3.2-3.2-5.7-6.9-7.5-11.1c-1.9-4.3-2.8-8.7-2.8-13.5
			v-87.4h17.5v87.4c0,3.9,0.3,7.8,1.1,11.5c0.7,3.7,1.7,6.9,3.3,9.8c1.4,2.8,3.3,5.1,5.5,6.8c2.2,1.6,4.8,2.5,7.6,2.5
			c4.7,0,8.8-0.9,12.7-2.5s7-3.9,9.6-6.8c2.6-2.8,4.7-6.1,6.1-9.8c1.4-3.7,2.2-7.5,2.2-11.5v-87.4H249.7z"/>
		<path class="st1" d="M269.8,297.9H282v21h-5.2c0.4-1.6,0.8-3.1,0.9-4.4c0.1-1.2,0-2.2-0.2-3.1c-0.3-0.9-1.1-1.3-2.4-1.3h-5.2
			L269.8,297.9L269.8,297.9z"/>
		<path class="st1" d="M334.1,366.6c-1.4,0.2-2.8,0.3-4.3,0.3s-2.8,0-4.3,0h-8.7v52.4h-17.5V297.1h26.2c29.2,0,43.7,11.7,43.7,34.9
			c0,15.5-6.4,25.8-19.4,30.9l28.2,56.5h-17.5L334.1,366.6z M329.1,364.7c0.1,0,0.2,0,0.2-0.1c0.1-0.1,0.1-0.1,0.2-0.1h1.2
			c0.1-0.1,0.3-0.2,0.5-0.2c1.4-0.2,2.5-0.4,3.5-0.7h0.3c0.2-0.1,0.5-0.2,0.9-0.2c0.3-0.1,0.7-0.2,0.9-0.4c0.2-0.1,0.5-0.2,0.9-0.2
			c0.3-0.1,0.7-0.2,0.9-0.4c4.9-2,8.3-5.1,10.3-9.4s2.8-9,2.8-13.8v-14c0-8.4-2.3-14.7-6.8-19.2s-11-6.7-19.4-6.7h-8.7v65.5h8.7h1.7
			h0.5h1.3v-0.1H329.1z"/>
		<path class="st1" d="M411.9,301.4v46l36-0.2v4.4h-36V415h43.7v4.4h-61.2V297.1h61.2v4.4h-43.7V301.4z"/>
		<path class="st1" d="M598.3,297.1v122.3h-8.7L524,324.2v95.2h-4.4V297.1h8.7l65.5,95.2v-95.2L598.3,297.1L598.3,297.1z"/>
		<path class="st1" d="M619.2,349.5c0-7.2,0.9-14.1,2.7-20.4c1.9-6.4,4.6-12,8.2-16.7c3.7-4.7,8.2-8.4,13.8-11.1
			c5.5-2.7,11.8-4.2,19-4.2s13.5,1.4,19,4.2c5.5,2.7,10,6.4,13.8,11.1c3.7,4.7,6.4,10.3,8.2,16.7c1.9,6.4,2.7,13.2,2.7,20.4V367
			c0,7.2-0.9,14.1-2.7,20.4c-1.9,6.4-4.6,12-8.2,16.7c-3.7,4.7-8.2,8.4-13.8,11.1c-5.5,2.7-11.8,4.2-19,4.2s-13.5-1.4-19-4.2
			c-5.5-2.7-10-6.4-13.8-11.1c-3.7-4.7-6.4-10.3-8.2-16.7c-1.9-6.4-2.7-13.2-2.7-20.4V349.5z M638.8,384.4c0,4.2,0.4,8.3,1.4,12.2
			c1,3.9,2.4,7.4,4.3,10.5c2,3.1,4.4,5.5,7.4,7.2c3.1,1.9,6.7,2.7,10.8,2.7s7.9-0.9,10.9-2.7c3.1-1.9,5.6-4.3,7.5-7.2
			c2-3.1,3.4-6.6,4.3-10.5c1-3.9,1.4-8.1,1.4-12.2V332c0-4.2-0.4-8.3-1.4-12.2c-1-3.9-2.4-7.5-4.3-10.6c-2-3.1-4.5-5.6-7.5-7.3
			c-3.1-1.9-6.8-2.7-10.9-2.7s-7.8,0.9-10.8,2.7c-3.1,1.9-5.5,4.3-7.4,7.3c-2,3.1-3.4,6.7-4.3,10.6c-1,3.9-1.4,8.1-1.4,12.2V384.4z"
			/>
		<path class="st1" d="M707.5,297.1h78.6v4.4h-30.6v118H738v-118h-30.6L707.5,297.1L707.5,297.1z"/>
		<path class="st1" d="M880.2,419.4c-10.6,0-18.9-2.4-25-7.2c-6-4.8-9.4-11.1-9.9-19v-69.9c0.5-7.8,3.9-14.1,9.9-19
			c6-4.8,14.4-7.2,25-7.2s18.9,2.3,25,6.8c6,4.6,9.4,11,9.9,19.4h-17.3c0.1-3.3,0-6.3-0.3-9.4c-0.3-2.9-1.2-5.6-2.4-7.8
			c-1.3-2.2-3.2-3.9-5.5-5.2c-2.4-1.3-5.5-2-9.4-2c-3.8,0-6.9,0.7-9.3,2c-2.3,1.3-4.2,3.1-5.5,5.2c-1.3,2.2-2.1,4.8-2.4,7.8
			c-0.3,2.9-0.4,6.1-0.3,9.4v69.9c-0.1,3.3,0,6.3,0.3,9.4c0.3,2.9,1.2,5.6,2.4,7.8c1.3,2.2,3.1,3.9,5.5,5.2c2.3,1.3,5.5,2,9.3,2
			s7-0.7,9.4-2s4.3-3.1,5.5-5.2c1.3-2.2,2.1-4.8,2.4-7.8c0.3-2.9,0.4-6.1,0.3-9.4V369h-13.3v-4.4h30.6v28.5
			c-0.5,8.3-3.9,14.7-9.9,19.3C899.1,417.1,890.8,419.4,880.2,419.4z"/>
		<path class="st1" d="M932.1,349.5c0-7.2,0.9-14.1,2.7-20.4c1.9-6.4,4.6-12,8.2-16.7c3.7-4.7,8.2-8.4,13.8-11.1
			c5.5-2.7,11.8-4.2,19-4.2s13.5,1.4,19,4.2c5.5,2.7,10,6.4,13.8,11.1c3.7,4.7,6.4,10.3,8.2,16.7c1.9,6.4,2.7,13.2,2.7,20.4V367
			c0,7.2-0.9,14.1-2.7,20.4c-1.9,6.4-4.6,12-8.2,16.7c-3.7,4.7-8.2,8.4-13.8,11.1c-5.5,2.7-11.8,4.2-19,4.2s-13.5-1.4-19-4.2
			c-5.5-2.7-10-6.4-13.8-11.1c-3.7-4.7-6.4-10.3-8.2-16.7c-1.9-6.4-2.7-13.2-2.7-20.4V349.5z M951.8,384.4c0,4.2,0.4,8.3,1.4,12.2
			c1,3.9,2.4,7.4,4.3,10.5c2,3.1,4.4,5.5,7.4,7.2c3.1,1.9,6.7,2.7,10.8,2.7c4.2,0,7.9-0.9,10.9-2.7c3.1-1.9,5.6-4.3,7.5-7.2
			c2-3.1,3.4-6.6,4.3-10.5c1-3.9,1.4-8.1,1.4-12.2V332c0-4.2-0.4-8.3-1.4-12.2s-2.4-7.5-4.3-10.6c-2-3.1-4.5-5.6-7.5-7.3
			c-3.1-1.9-6.8-2.7-10.9-2.7s-7.8,0.9-10.8,2.7c-3.1,1.9-5.5,4.3-7.4,7.3c-2,3.1-3.4,6.7-4.3,10.6c-1,3.9-1.4,8.1-1.4,12.2V384.4z"
			/>
		<path class="st1" d="M1057.8,297.1v122.3h-17.5V297.1H1057.8z"/>
		<path class="st1" d="M1160.9,297.1v122.3h-8.7l-65.5-95.2v95.2h-4.4V297.1h8.7l65.5,95.2v-95.2L1160.9,297.1L1160.9,297.1z"/>
		<path class="st1" d="M1218.7,419.4c-10.6,0-18.9-2.4-25-7.2c-6-4.8-9.4-11.1-9.9-19v-69.9c0.5-7.8,3.9-14.1,9.9-19
			c6-4.8,14.4-7.2,25-7.2s18.9,2.3,25,6.8c6,4.6,9.4,11,9.9,19.4h-17.3c0.1-3.3,0-6.3-0.3-9.4c-0.3-2.9-1.2-5.6-2.4-7.8
			c-1.3-2.2-3.2-3.9-5.5-5.2c-2.4-1.3-5.5-2-9.4-2c-3.8,0-6.9,0.7-9.3,2c-2.3,1.3-4.2,3.1-5.5,5.2c-1.3,2.2-2.1,4.8-2.4,7.8
			c-0.3,2.9-0.4,6.1-0.3,9.4v69.9c-0.1,3.3,0,6.3,0.3,9.4c0.3,2.9,1.2,5.6,2.4,7.8c1.3,2.2,3.1,3.9,5.5,5.2c2.3,1.3,5.5,2,9.3,2
			s7-0.7,9.4-2s4.3-3.1,5.5-5.2c1.3-2.2,2.1-4.8,2.4-7.8c0.3-2.9,0.4-6.1,0.3-9.4V369H1223v-4.4h30.6v28.5
			c-0.5,8.3-3.9,14.7-9.9,19.3C1237.7,417.1,1229.2,419.4,1218.7,419.4z"/>
	</g>
	<g class="st0">
		<path class="st1" d="M64.9,500.1h-36v67.8H11.4V445.6h61.2v4.4H28.8v45.8h36L64.9,500.1L64.9,500.1z"/>
		<path class="st1" d="M152,567.9h-17.5l-10.7-37.2H79.7L69,567.9h-4.4l34.9-122.3H117L152,567.9z M80.9,526.3h41.7l-20.8-73.1
			L80.9,526.3z"/>
		<path class="st1" d="M163.4,471.8c0.5-8.3,3.2-14.7,7.9-19.3c4.7-4.6,12.2-6.9,22.7-6.9c5.2,0,9.7,0.7,13.3,2
			c3.7,1.3,6.7,3.1,9.1,5.4c2.4,2.3,4.2,5,5.5,8.3c1.2,3.3,2,6.8,2.4,10.7H208c0.1-3.3,0.2-6.3,0.2-9.4c0-2.9-0.4-5.6-1.2-7.8
			c-0.8-2.2-2.2-3.9-4.2-5.2c-2-1.3-4.9-2-8.7-2c-3.7,0-6.6,1.2-8.4,3.7s-3.2,5.2-3.8,8.3c-0.8,3.6-1.1,7.6-0.9,12.2v29.1l43.7,12.5
			v28.4c-0.3,3.8-1.1,7.4-2.4,10.7c-1.2,3.3-3.1,6-5.5,8.3s-5.6,4-9.3,5.4c-3.7,1.3-8.2,2-13.4,2c-10.5,0-18-2.3-22.6-7
			s-7.2-11-7.8-19.2h15.4c-0.1,3.3-0.1,6.3,0,9.3c0.1,2.9,0.7,5.5,1.5,7.6c1,2.2,2.4,3.8,4.5,5.1s5,2,8.8,2s6.7-1.2,8.5-3.7
			c1.9-2.5,3.1-5.2,3.7-8.3c0.8-3.5,1.1-7.4,0.9-11.9V513l-43.7-12.6L163.4,471.8L163.4,471.8z"/>
		<path class="st1" d="M232.2,445.6h78.6v4.4h-30.6v118h-17.5V450h-30.6v-4.4H232.2z"/>
		<path class="st1" d="M389,450v46l36-0.2v4.4h-36v63.5h43.7v4.4h-61.2V445.6h61.2v4.4H389z"/>
		<path class="st1" d="M527.4,445.6v122.3h-8.7l-65.5-95.2v95.2h-4.4V445.6h8.7l65.5,95.2v-95.2L527.4,445.6L527.4,445.6z"/>
		<path class="st1" d="M548.2,498c0-7.2,0.9-14.1,2.7-20.4c1.9-6.4,4.6-12,8.2-16.7c3.7-4.7,8.2-8.4,13.8-11.1
			c5.5-2.7,11.8-4.2,19-4.2s13.5,1.4,19,4.2c5.5,2.7,10,6.4,13.8,11.1c3.7,4.7,6.4,10.3,8.2,16.7c1.9,6.4,2.7,13.2,2.7,20.4v17.5
			c0,7.2-0.9,14.1-2.7,20.4c-1.9,6.4-4.6,12-8.2,16.7c-3.7,4.7-8.2,8.4-13.8,11.1c-5.5,2.7-11.8,4.2-19,4.2s-13.5-1.4-19-4.2
			c-5.5-2.7-10-6.4-13.8-11.1c-3.7-4.7-6.4-10.3-8.2-16.7c-1.9-6.4-2.7-13.2-2.7-20.4V498z M567.9,533c0,4.2,0.4,8.3,1.4,12.2
			s2.4,7.4,4.3,10.5c2,3.1,4.4,5.5,7.4,7.2c3.1,1.9,6.7,2.7,10.8,2.7s7.9-0.9,10.9-2.7c3.1-1.9,5.6-4.3,7.5-7.2
			c2-3.1,3.4-6.6,4.3-10.5c1-3.9,1.4-8.1,1.4-12.2v-52.4c0-4.2-0.4-8.3-1.4-12.2c-1-3.9-2.4-7.5-4.3-10.6c-2-3.1-4.5-5.6-7.5-7.3
			c-3.1-1.9-6.8-2.7-10.9-2.7s-7.8,0.9-10.8,2.7c-3.1,1.9-5.5,4.3-7.4,7.3c-2,3.1-3.4,6.7-4.3,10.6c-1,3.9-1.4,8.1-1.4,12.2V533z"/>
		<path class="st1" d="M720.6,445.6h4.4V533c0,4.8-0.9,9.3-2.7,13.5c-1.9,4.3-4.3,8-7.4,11.1c-3.2,3.2-6.9,5.7-11.1,7.5
			c-4.3,1.9-8.8,2.8-13.8,2.8c-4.8,0-9.3-1-13.5-2.8c-4.3-1.9-8-4.4-11.1-7.5c-3.2-3.2-5.7-6.9-7.5-11.1c-1.9-4.3-2.8-8.7-2.8-13.5
			v-87.4h17.5V533c0,3.9,0.3,7.8,1.1,11.5c0.7,3.7,1.7,6.9,3.3,9.8c1.4,2.8,3.3,5.1,5.5,6.8c2.2,1.6,4.8,2.5,7.6,2.5
			c4.7,0,8.8-0.9,12.7-2.5s7-3.9,9.6-6.8c2.6-2.8,4.7-6.1,6.1-9.8c1.4-3.7,2.2-7.5,2.2-11.5L720.6,445.6L720.6,445.6z"/>
		<path class="st1" d="M781.7,567.9c-10.6,0-18.9-2.4-25-7.2c-6-4.8-9.4-11.1-9.9-19v-69.9c0.5-7.8,3.9-14.1,9.9-19
			c6-4.8,14.4-7.2,25-7.2s18.9,2.3,25,6.8c6,4.6,9.4,11,9.9,19.4h-17.3c0.1-3.3,0-6.3-0.3-9.4c-0.3-2.9-1.2-5.6-2.4-7.8
			c-1.3-2.2-3.2-3.9-5.5-5.2c-2.4-1.3-5.5-2-9.4-2c-3.8,0-6.9,0.7-9.3,2c-2.3,1.3-4.2,3.1-5.5,5.2c-1.3,2.2-2.1,4.8-2.4,7.8
			c-0.3,2.9-0.4,6.1-0.3,9.4v69.9c-0.1,3.3,0,6.3,0.3,9.4c0.3,2.9,1.2,5.6,2.4,7.8c1.3,2.2,3.1,3.9,5.5,5.2c2.3,1.3,5.5,2,9.3,2
			s7-0.7,9.4-2s4.3-3.1,5.5-5.2c1.3-2.2,2.1-4.8,2.4-7.8s0.4-6.1,0.3-9.4v-24.1H786v-4.4h30.6v28.5c-0.5,8.3-3.9,14.7-9.9,19.3
			C800.6,565.6,792.3,567.9,781.7,567.9z"/>
		<path class="st1" d="M898.4,445.6h17.5v122.3h-17.5v-67.8h-43.7v67.8h-17.5V445.6h17.5v50.1h43.7V445.6z"/>
		<path class="st1" d="M932,567.9v-12.2h12.2v12.2H932z"/>
		<path class="st1" d="M952.7,458.7v-12.2h12.2v21h-5.2c0.4-1.6,0.8-3.1,0.9-4.4c0.1-1.2,0-2.2-0.2-3.1c-0.3-0.9-1.1-1.3-2.4-1.3
			H952.7z M970.2,446.5h12.2v21h-5.2c0.4-1.6,0.8-3.1,0.9-4.4c0.1-1.2,0-2.2-0.2-3.1c-0.3-0.9-1.1-1.3-2.4-1.3h-5.2L970.2,446.5
			L970.2,446.5z"/>
	</g>
</g>
</svg>
