<?xml version="1.0" encoding="utf-8"?>
<!-- Generator: Adobe Illustrator 28.1.0, SVG Export Plug-In . SVG Version: 6.00 Build 0)  -->
<svg version="1.1" id="Layer_1" xmlns="http://www.w3.org/2000/svg" xmlns:xlink="http://www.w3.org/1999/xlink" x="0px" y="0px"
	 viewBox="0 0 370 370" style="enable-background:new 0 0 370 370;" xml:space="preserve">
<g>
	<path d="M1.5,0.3h1.9C3.3,0.9,3.2,1.4,3.1,1.9c0,0.4,0.1,0.7,0.2,1.1c0.1,0.3,0.4,0.5,0.8,0.5H6V8H1.5V0.3z M9.8,0.3
		C9.6,0.9,9.5,1.4,9.5,1.9c0,0.4,0.1,0.7,0.2,1.1c0.1,0.3,0.4,0.5,0.8,0.5h1.9V8H7.9V0.3H9.8z"/>
	<path d="M27.4,0v41.2h-5.9V0H27.4z"/>
	<path d="M54.9,18.4H42.7v22.8h-5.9V0h20.6v1.5H42.7v15.4h12.1V18.4z"/>
	<path d="M86.7,1.5v15.5l12.1-0.1v1.5H86.7v21.4h14.7v1.5H80.8V0h20.6v1.5H86.7z"/>
	<path d="M104.9,0h5.9l9.6,38.6L129.9,0h1.5l-10.3,41.2h-5.9L104.9,0z"/>
	<path d="M143.7,1.5v15.5l12.1-0.1v1.5h-12.1v21.4h14.7v1.5h-20.6V0h20.6v1.5H143.7z"/>
	<path d="M176.7,23.4c-0.5,0.1-0.9,0.1-1.4,0.1c-0.5,0-1,0-1.4,0h-2.9v17.7H165V0h8.8c9.8,0,14.7,3.9,14.7,11.8
		c0,5.2-2.2,8.7-6.5,10.4l9.5,19h-5.9L176.7,23.4z M175,22.8C175,22.8,175,22.8,175,22.8c0.1,0,0.1-0.1,0.2-0.1h0.4
		c0,0,0.1-0.1,0.2-0.1c0.5-0.1,0.9-0.2,1.2-0.2h0.1c0.1,0,0.2-0.1,0.3-0.1c0.1,0,0.2-0.1,0.3-0.1c0.1,0,0.2-0.1,0.3-0.1
		c0.1,0,0.2-0.1,0.3-0.1c1.6-0.7,2.8-1.7,3.4-3.2s1-3,1-4.7V9.4c0-2.8-0.8-5-2.3-6.5c-1.5-1.5-3.7-2.2-6.6-2.2h-2.9v22.1h2.9h0.6
		h0.2H175z"/>
	<path d="M217.1,0l-9.2,18.4v22.8H202V18.4L192.8,0h5.9l8.5,16.9L215.6,0H217.1z"/>
	<path d="M218.7,0h26.5v1.5h-10.3v39.7H229V1.5h-10.3V0z"/>
	<path d="M271.2,0h5.9v41.2h-5.9V18.4h-14.7v22.8h-5.9V0h5.9v16.9h14.7V0z"/>
	<path d="M292.4,0v41.2h-5.9V0H292.4z"/>
	<path d="M328.3,0v41.2h-2.9L303.3,9.1v32.1h-1.5V0h2.9l22.1,32.1V0H328.3z"/>
	<path d="M337.2,8.8c0.2-2.6,1.3-4.8,3.4-6.4c2-1.6,4.8-2.4,8.4-2.4c3.6,0,6.4,0.8,8.4,2.3c2,1.5,3.2,3.7,3.4,6.5h-5.8
		c0-1.1,0-2.1-0.1-3.1c-0.1-1-0.4-1.9-0.8-2.6c-0.4-0.7-1-1.3-1.9-1.8s-1.9-0.6-3.1-0.6s-2.3,0.2-3.1,0.6c-0.8,0.4-1.4,1-1.8,1.8
		c-0.4,0.7-0.7,1.6-0.8,2.6c-0.1,1-0.2,2-0.1,3.1v23.5c0,1.1,0,2.1,0.1,3.1c0.1,1,0.4,1.9,0.8,2.6s1,1.3,1.8,1.8
		c0.8,0.4,1.8,0.6,3.1,0.6s2.3-0.2,3.1-0.6c0.8-0.4,1.4-1,1.9-1.8s0.7-1.6,0.8-2.6c0.1-1,0.2-2,0.1-3.1v-8.1h-4.5v-1.5h10.3v9.6
		c-0.2,2.8-1.3,5-3.4,6.5c-2,1.6-4.8,2.3-8.4,2.3c-3.6,0-6.4-0.8-8.4-2.4c-2-1.6-3.2-3.8-3.4-6.4V8.8z"/>
	<g>
		<path d="M1.9,59.3c0.2-2.8,1.1-5,2.6-6.5c1.6-1.6,4.1-2.3,7.6-2.3c1.8,0,3.3,0.2,4.5,0.6c1.2,0.4,2.3,1,3.1,1.8
			c0.8,0.8,1.4,1.7,1.8,2.8c0.4,1.1,0.7,2.3,0.8,3.6h-5.5c0-1.1,0.1-2.1,0.1-3.1c0-1-0.1-1.9-0.4-2.6c-0.3-0.7-0.7-1.3-1.4-1.8
			s-1.6-0.6-2.9-0.6c-1.3,0-2.2,0.4-2.8,1.3c-0.6,0.8-1.1,1.8-1.3,2.8c-0.3,1.2-0.4,2.6-0.3,4.1v9.8l14.7,4.2v9.6
			c-0.1,1.3-0.4,2.5-0.8,3.6c-0.4,1.1-1,2-1.9,2.8C19.1,90,18,90.6,16.8,91c-1.3,0.4-2.8,0.6-4.5,0.6c-3.5,0-6.1-0.8-7.6-2.4
			c-1.6-1.6-2.4-3.7-2.6-6.5h5.2c0,1.1,0,2.1,0,3.1c0,1,0.2,1.8,0.5,2.6c0.3,0.7,0.8,1.3,1.5,1.7c0.7,0.4,1.7,0.6,3,0.6
			s2.2-0.4,2.9-1.3s1-1.8,1.3-2.8c0.3-1.2,0.4-2.5,0.3-4v-9.8L1.9,68.9V59.3z"/>
		<path d="M36.6,52v15.5l12.1-0.1v1.5H36.6v21.4h14.7v1.5H30.7V50.5h20.6V52H36.6z"/>
		<path d="M63.8,52v15.5l12.1-0.1v1.5H63.8v21.4h14.7v1.5H57.9V50.5h20.6V52H63.8z"/>
		<path d="M102.8,91.7h-5.9L86.6,55.6v36.1h-1.5V50.5H91L102,89.1l11-38.6h5.9v41.2h-5.9V55.6L102.8,91.7z"/>
		<path d="M127.1,59.3c0.2-2.8,1.1-5,2.6-6.5c1.6-1.6,4.1-2.3,7.6-2.3c1.8,0,3.3,0.2,4.5,0.6c1.2,0.4,2.3,1,3.1,1.8
			c0.8,0.8,1.4,1.7,1.8,2.8c0.4,1.1,0.7,2.3,0.8,3.6h-5.5c0-1.1,0.1-2.1,0.1-3.1c0-1-0.1-1.9-0.4-2.6c-0.3-0.7-0.7-1.3-1.4-1.8
			s-1.6-0.6-2.9-0.6c-1.3,0-2.2,0.4-2.8,1.3c-0.6,0.8-1.1,1.8-1.3,2.8c-0.3,1.2-0.4,2.6-0.3,4.1v9.8l14.7,4.2v9.6
			c-0.1,1.3-0.4,2.5-0.8,3.6c-0.4,1.1-1,2-1.9,2.8c-0.8,0.8-1.9,1.4-3.1,1.8c-1.3,0.4-2.8,0.6-4.5,0.6c-3.5,0-6.1-0.8-7.6-2.4
			c-1.6-1.6-2.4-3.7-2.6-6.5h5.2c0,1.1,0,2.1,0,3.1c0,1,0.2,1.8,0.5,2.6c0.3,0.7,0.8,1.3,1.5,1.7c0.7,0.4,1.7,0.6,3,0.6
			s2.2-0.4,2.9-1.3s1-1.8,1.3-2.8c0.3-1.2,0.4-2.5,0.3-4v-9.8l-14.7-4.2V59.3z"/>
		<path d="M194.9,50.5h1.5v29.4c0,1.6-0.3,3.1-0.9,4.6c-0.6,1.4-1.4,2.7-2.5,3.7c-1.1,1.1-2.3,1.9-3.7,2.5c-1.4,0.6-3,0.9-4.6,0.9
			c-1.6,0-3.1-0.3-4.6-0.9c-1.4-0.6-2.7-1.5-3.7-2.5c-1.1-1.1-1.9-2.3-2.5-3.7c-0.6-1.4-0.9-3-0.9-4.6V50.5h5.9v29.4
			c0,1.3,0.1,2.6,0.4,3.9c0.2,1.2,0.6,2.3,1.1,3.3c0.5,1,1.1,1.7,1.9,2.3c0.7,0.6,1.6,0.9,2.6,0.9c1.6,0,3-0.3,4.3-0.9
			c1.3-0.6,2.4-1.3,3.2-2.3c0.9-1,1.6-2.1,2.1-3.3c0.5-1.2,0.7-2.5,0.7-3.9V50.5z"/>
		<path d="M231.9,50.5v41.2h-2.9l-22.1-32.1v32.1h-1.5V50.5h2.9l22.1,32.1V50.5H231.9z"/>
		<path d="M253.1,50.5c2.4,0,4.6,0.5,6.4,1.4c1.8,0.9,3.4,2.2,4.6,3.8c1.2,1.6,2.2,3.5,2.8,5.6c0.6,2.2,0.9,4.5,0.9,6.9V74
			c0,2.4-0.3,4.7-0.9,6.9c-0.6,2.2-1.5,4-2.8,5.6c-1.2,1.6-2.8,2.8-4.6,3.8c-1.8,0.9-4,1.4-6.4,1.4h-11.8V50.5H253.1z M261.2,62.3
			c0-1.4-0.2-2.8-0.5-4.1c-0.3-1.3-0.8-2.5-1.4-3.6c-0.6-1-1.5-1.9-2.5-2.5c-1-0.6-2.3-0.9-3.7-0.9h-5.9v39.7h5.9
			c1.4,0,2.6-0.3,3.7-0.9c1-0.6,1.9-1.4,2.5-2.4c0.6-1,1.1-2.2,1.4-3.5c0.3-1.3,0.5-2.7,0.5-4.1V62.3z"/>
		<path d="M281.8,52v15.5l12.1-0.1v1.5h-12.1v21.4h14.7v1.5H276V50.5h20.6V52H281.8z"/>
		<path d="M314.9,73.9c-0.5,0.1-1,0.1-1.4,0.1c-0.5,0-1,0-1.4,0H309v17.7h-5.9V50.5h8.8c9.8,0,14.7,3.9,14.7,11.8
			c0,5.2-2.2,8.7-6.5,10.4l9.5,19h-5.9L314.9,73.9z M313.2,73.3C313.2,73.3,313.2,73.3,313.2,73.3c0.1,0,0.1-0.1,0.2-0.1h0.4
			c0,0,0.1-0.1,0.2-0.1c0.5-0.1,0.9-0.2,1.2-0.2h0.1c0.1,0,0.2-0.1,0.3-0.1c0.1,0,0.2-0.1,0.3-0.1c0.1,0,0.2-0.1,0.3-0.1
			c0.1,0,0.2-0.1,0.3-0.1c1.6-0.7,2.8-1.7,3.4-3.2c0.6-1.5,1-3,1-4.7v-4.7c0-2.8-0.8-5-2.3-6.5c-1.5-1.5-3.7-2.2-6.6-2.2H309v22.1
			h2.9h0.6h0.2H313.2z"/>
	</g>
	<g>
		<path d="M14.4,142.2c-3.6,0-6.4-0.8-8.4-2.4c-2-1.6-3.2-3.8-3.4-6.4v-23.5c0.2-2.6,1.3-4.8,3.4-6.4c2-1.6,4.8-2.4,8.4-2.4
			s6.4,0.8,8.4,2.3c2,1.5,3.2,3.7,3.4,6.5h-5.8c0-1.1,0-2.1-0.1-3.1c-0.1-1-0.4-1.9-0.8-2.6c-0.4-0.7-1-1.3-1.9-1.8
			s-1.9-0.6-3.1-0.6s-2.3,0.2-3.1,0.6c-0.8,0.4-1.4,1-1.8,1.8c-0.4,0.7-0.7,1.6-0.8,2.6c-0.1,1-0.2,2-0.1,3.1v23.5
			c0,1.1,0,2.1,0.1,3.1c0.1,1,0.4,1.9,0.8,2.6c0.4,0.7,1,1.3,1.8,1.8c0.8,0.4,1.8,0.6,3.1,0.6s2.3-0.2,3.1-0.6
			c0.8-0.4,1.4-1,1.9-1.8c0.4-0.7,0.7-1.6,0.8-2.6c0.1-1,0.2-2,0.1-3.1h5.8c-0.2,2.8-1.3,5-3.4,6.5C20.8,141.4,18,142.2,14.4,142.2z
			"/>
		<path d="M32,118.6c0-2.4,0.3-4.7,0.9-6.9c0.6-2.2,1.5-4,2.8-5.6c1.2-1.6,2.8-2.8,4.6-3.8c1.8-0.9,4-1.4,6.4-1.4
			c2.4,0,4.6,0.5,6.4,1.4c1.8,0.9,3.4,2.2,4.6,3.8c1.2,1.6,2.2,3.5,2.8,5.6c0.6,2.2,0.9,4.5,0.9,6.9v5.9c0,2.4-0.3,4.7-0.9,6.9
			c-0.6,2.2-1.5,4-2.8,5.6c-1.2,1.6-2.8,2.8-4.6,3.8c-1.8,0.9-4,1.4-6.4,1.4c-2.4,0-4.6-0.5-6.4-1.4c-1.8-0.9-3.4-2.2-4.6-3.8
			c-1.2-1.6-2.2-3.5-2.8-5.6c-0.6-2.2-0.9-4.5-0.9-6.9V118.6z M38.7,130.4c0,1.4,0.2,2.8,0.5,4.1c0.3,1.3,0.8,2.5,1.4,3.5
			c0.6,1,1.5,1.8,2.5,2.4c1,0.6,2.2,0.9,3.7,0.9c1.4,0,2.6-0.3,3.7-0.9c1-0.6,1.9-1.4,2.5-2.4c0.6-1,1.1-2.2,1.4-3.5
			c0.3-1.3,0.5-2.7,0.5-4.1v-17.7c0-1.4-0.2-2.8-0.5-4.1c-0.3-1.3-0.8-2.5-1.4-3.6c-0.6-1-1.5-1.9-2.5-2.5c-1-0.6-2.3-0.9-3.7-0.9
			c-1.4,0-2.6,0.3-3.7,0.9s-1.9,1.4-2.5,2.5c-0.6,1-1.1,2.2-1.4,3.6c-0.3,1.3-0.5,2.7-0.5,4.1V130.4z"/>
		<path d="M96.1,101v41.2h-2.9l-22.1-32.1v32.1h-1.5V101h2.9l22.1,32.1V101H96.1z"/>
		<path d="M101.5,101H128v1.5h-10.3v39.7h-5.9v-39.7h-10.3V101z"/>
		<path d="M145.1,124.4c-0.5,0.1-1,0.1-1.4,0.1c-0.5,0-1,0-1.4,0h-2.9v17.7h-5.9V101h8.8c9.8,0,14.7,3.9,14.7,11.8
			c0,5.2-2.2,8.7-6.5,10.4l9.5,19H154L145.1,124.4z M143.4,123.8C143.5,123.8,143.5,123.8,143.4,123.8c0.1,0,0.1-0.1,0.2-0.1h0.4
			c0,0,0.1-0.1,0.2-0.1c0.5-0.1,0.9-0.2,1.2-0.2h0.1c0.1,0,0.2-0.1,0.3-0.1s0.2-0.1,0.3-0.1c0.1,0,0.2-0.1,0.3-0.1
			c0.1,0,0.2-0.1,0.3-0.1c1.6-0.7,2.8-1.7,3.4-3.2s1-3,1-4.7v-4.7c0-2.8-0.8-5-2.3-6.5c-1.5-1.5-3.7-2.2-6.6-2.2h-2.9v22.1h2.9h0.6
			h0.2H143.4z"/>
		<path d="M164.7,118.6c0-2.4,0.3-4.7,0.9-6.9c0.6-2.2,1.5-4,2.8-5.6c1.2-1.6,2.8-2.8,4.6-3.8c1.8-0.9,4-1.4,6.4-1.4
			c2.4,0,4.6,0.5,6.4,1.4c1.8,0.9,3.4,2.2,4.6,3.8c1.2,1.6,2.2,3.5,2.8,5.6c0.6,2.2,0.9,4.5,0.9,6.9v5.9c0,2.4-0.3,4.7-0.9,6.9
			c-0.6,2.2-1.5,4-2.8,5.6c-1.2,1.6-2.8,2.8-4.6,3.8c-1.8,0.9-4,1.4-6.4,1.4c-2.4,0-4.6-0.5-6.4-1.4c-1.8-0.9-3.4-2.2-4.6-3.8
			c-1.2-1.6-2.2-3.5-2.8-5.6c-0.6-2.2-0.9-4.5-0.9-6.9V118.6z M171.4,130.4c0,1.4,0.2,2.8,0.5,4.1c0.3,1.3,0.8,2.5,1.4,3.5
			c0.6,1,1.5,1.8,2.5,2.4c1,0.6,2.2,0.9,3.6,0.9c1.4,0,2.6-0.3,3.7-0.9c1-0.6,1.9-1.4,2.5-2.4c0.6-1,1.1-2.2,1.4-3.5
			c0.3-1.3,0.5-2.7,0.5-4.1v-17.7c0-1.4-0.2-2.8-0.5-4.1c-0.3-1.3-0.8-2.5-1.4-3.6c-0.6-1-1.5-1.9-2.5-2.5s-2.3-0.9-3.7-0.9
			c-1.4,0-2.6,0.3-3.6,0.9c-1,0.6-1.9,1.4-2.5,2.5c-0.6,1-1.1,2.2-1.4,3.6c-0.3,1.3-0.5,2.7-0.5,4.1V130.4z"/>
		<path d="M202.3,142.2V101h5.9v39.7h14.7v1.5H202.3z"/>
		<path d="M225.4,138.6h4.1v7.1h-1.8c0.2-0.6,0.3-1,0.3-1.5c0-0.4,0-0.7-0.1-1c-0.1-0.3-0.4-0.5-0.8-0.5h-1.8V138.6z"/>
		<path d="M273.8,101l-9.2,18.4v22.8h-5.9v-22.8l-9.2-18.4h5.9l8.5,16.9l8.5-16.9H273.8z"/>
		<path d="M276.7,118.6c0-2.4,0.3-4.7,0.9-6.9c0.6-2.2,1.5-4,2.8-5.6c1.2-1.6,2.8-2.8,4.6-3.8c1.8-0.9,4-1.4,6.4-1.4
			c2.4,0,4.6,0.5,6.4,1.4c1.8,0.9,3.4,2.2,4.6,3.8c1.2,1.6,2.2,3.5,2.8,5.6c0.6,2.2,0.9,4.5,0.9,6.9v5.9c0,2.4-0.3,4.7-0.9,6.9
			c-0.6,2.2-1.5,4-2.8,5.6c-1.2,1.6-2.8,2.8-4.6,3.8c-1.8,0.9-4,1.4-6.4,1.4c-2.4,0-4.6-0.5-6.4-1.4c-1.8-0.9-3.4-2.2-4.6-3.8
			c-1.2-1.6-2.2-3.5-2.8-5.6c-0.6-2.2-0.9-4.5-0.9-6.9V118.6z M283.4,130.4c0,1.4,0.2,2.8,0.5,4.1c0.3,1.3,0.8,2.5,1.4,3.5
			c0.6,1,1.5,1.8,2.5,2.4c1,0.6,2.2,0.9,3.7,0.9c1.4,0,2.6-0.3,3.7-0.9c1-0.6,1.9-1.4,2.5-2.4c0.6-1,1.1-2.2,1.4-3.5
			c0.3-1.3,0.5-2.7,0.5-4.1v-17.7c0-1.4-0.2-2.8-0.5-4.1c-0.3-1.3-0.8-2.5-1.4-3.6c-0.6-1-1.5-1.9-2.5-2.5c-1-0.6-2.3-0.9-3.7-0.9
			c-1.4,0-2.6,0.3-3.7,0.9c-1,0.6-1.9,1.4-2.5,2.5c-0.6,1-1.1,2.2-1.4,3.6c-0.3,1.3-0.5,2.7-0.5,4.1V130.4z"/>
		<path d="M336,101h1.5v29.4c0,1.6-0.3,3.1-0.9,4.6c-0.6,1.4-1.4,2.7-2.5,3.7c-1.1,1.1-2.3,1.9-3.7,2.5c-1.4,0.6-3,0.9-4.6,0.9
			c-1.6,0-3.1-0.3-4.6-0.9c-1.4-0.6-2.7-1.5-3.7-2.5c-1.1-1.1-1.9-2.3-2.5-3.7c-0.6-1.4-0.9-3-0.9-4.6V101h5.9v29.4
			c0,1.3,0.1,2.6,0.4,3.9s0.6,2.3,1.1,3.3c0.5,1,1.1,1.7,1.9,2.3c0.7,0.6,1.6,0.9,2.6,0.9c1.6,0,3-0.3,4.3-0.9
			c1.3-0.6,2.4-1.3,3.2-2.3c0.9-1,1.6-2.1,2.1-3.3c0.5-1.2,0.7-2.5,0.7-3.9V101z"/>
	</g>
	<g>
		<path d="M29.4,192.7h-5.9l-3.6-12.5H5.1l-3.6,12.5H0l11.8-41.2h5.9L29.4,192.7z M19.5,178.7l-7-24.6l-7.1,24.6H19.5z"/>
		<path d="M47.4,174.9c-0.5,0.1-0.9,0.1-1.4,0.1c-0.5,0-1,0-1.4,0h-2.9v17.7h-5.9v-41.2h8.8c9.8,0,14.7,3.9,14.7,11.8
			c0,5.2-2.2,8.7-6.5,10.4l9.5,19h-5.9L47.4,174.9z M45.7,174.3C45.7,174.3,45.7,174.2,45.7,174.3c0.1,0,0.1-0.1,0.2-0.1h0.4
			c0,0,0.1-0.1,0.2-0.1c0.5-0.1,0.9-0.2,1.2-0.2h0.1c0.1,0,0.2-0.1,0.3-0.1c0.1,0,0.2-0.1,0.3-0.1c0.1,0,0.2-0.1,0.3-0.1
			s0.2-0.1,0.3-0.1c1.6-0.7,2.8-1.7,3.4-3.2s1-3,1-4.7v-4.7c0-2.8-0.8-5-2.3-6.5c-1.5-1.5-3.7-2.2-6.6-2.2h-2.9v22.1h2.9h0.6h0.2
			H45.7z"/>
		<path d="M74.7,152.9v15.5l12.1-0.1v1.5H74.7v21.4h14.7v1.5H68.9v-41.2h20.6v1.5H74.7z"/>
		<path d="M139.9,151.5v41.2h-2.9l-22.1-32.1v32.1h-1.5v-41.2h2.9l22.1,32.1v-32.1H139.9z"/>
		<path d="M148.1,169.1c0-2.4,0.3-4.7,0.9-6.9c0.6-2.2,1.5-4,2.8-5.6c1.2-1.6,2.8-2.8,4.6-3.8c1.8-0.9,4-1.4,6.4-1.4
			c2.4,0,4.6,0.5,6.4,1.4c1.8,0.9,3.4,2.2,4.6,3.8c1.2,1.6,2.2,3.5,2.8,5.6c0.6,2.2,0.9,4.5,0.9,6.9v5.9c0,2.4-0.3,4.7-0.9,6.9
			c-0.6,2.2-1.5,4-2.8,5.6c-1.2,1.6-2.8,2.8-4.6,3.8c-1.8,0.9-4,1.4-6.4,1.4c-2.4,0-4.6-0.5-6.4-1.4c-1.8-0.9-3.4-2.2-4.6-3.8
			c-1.2-1.6-2.2-3.5-2.8-5.6c-0.6-2.2-0.9-4.5-0.9-6.9V169.1z M154.7,180.9c0,1.4,0.2,2.8,0.5,4.1c0.3,1.3,0.8,2.5,1.4,3.5
			c0.6,1,1.5,1.8,2.5,2.4c1,0.6,2.2,0.9,3.7,0.9c1.4,0,2.6-0.3,3.7-0.9c1-0.6,1.9-1.4,2.5-2.4c0.6-1,1.1-2.2,1.4-3.5
			c0.3-1.3,0.5-2.7,0.5-4.1v-17.7c0-1.4-0.2-2.8-0.5-4.1c-0.3-1.3-0.8-2.5-1.4-3.6c-0.6-1-1.5-1.9-2.5-2.5c-1-0.6-2.3-0.9-3.7-0.9
			c-1.4,0-2.6,0.3-3.7,0.9c-1,0.6-1.9,1.4-2.5,2.5c-0.6,1-1.1,2.2-1.4,3.6c-0.3,1.3-0.5,2.7-0.5,4.1V180.9z"/>
		<path d="M179,151.5h26.5v1.5h-10.3v39.7h-5.9v-39.7H179V151.5z"/>
		<path d="M227.8,160.3c0.2-2.6,1.3-4.8,3.4-6.4c2-1.6,4.8-2.4,8.4-2.4s6.4,0.8,8.4,2.3c2,1.5,3.2,3.7,3.4,6.5h-5.8
			c0-1.1,0-2.1-0.1-3.1c-0.1-1-0.4-1.9-0.8-2.6c-0.4-0.7-1-1.3-1.9-1.8s-1.9-0.6-3.1-0.6s-2.3,0.2-3.1,0.6c-0.8,0.4-1.4,1-1.8,1.8
			c-0.4,0.7-0.7,1.6-0.8,2.6c-0.1,1-0.2,2-0.1,3.1v23.5c0,1.1,0,2.1,0.1,3.1c0.1,1,0.4,1.9,0.8,2.6s1,1.3,1.8,1.8
			c0.8,0.4,1.8,0.6,3.1,0.6s2.3-0.2,3.1-0.6c0.8-0.4,1.4-1,1.9-1.8s0.7-1.6,0.8-2.6c0.1-1,0.2-2,0.1-3.1v-8.1H241v-1.5h10.3v9.6
			c-0.2,2.8-1.3,5-3.4,6.5c-2,1.6-4.8,2.3-8.4,2.3s-6.4-0.8-8.4-2.4c-2-1.6-3.2-3.8-3.4-6.4V160.3z"/>
		<path d="M258.2,169.1c0-2.4,0.3-4.7,0.9-6.9c0.6-2.2,1.5-4,2.8-5.6c1.2-1.6,2.8-2.8,4.6-3.8c1.8-0.9,4-1.4,6.4-1.4
			s4.6,0.5,6.4,1.4c1.8,0.9,3.4,2.2,4.6,3.8c1.2,1.6,2.2,3.5,2.8,5.6c0.6,2.2,0.9,4.5,0.9,6.9v5.9c0,2.4-0.3,4.7-0.9,6.9
			c-0.6,2.2-1.5,4-2.8,5.6c-1.2,1.6-2.8,2.8-4.6,3.8c-1.8,0.9-4,1.4-6.4,1.4s-4.6-0.5-6.4-1.4c-1.8-0.9-3.4-2.2-4.6-3.8
			c-1.2-1.6-2.2-3.5-2.8-5.6c-0.6-2.2-0.9-4.5-0.9-6.9V169.1z M264.8,180.9c0,1.4,0.2,2.8,0.5,4.1c0.3,1.3,0.8,2.5,1.4,3.5
			c0.6,1,1.5,1.8,2.5,2.4c1,0.6,2.2,0.9,3.6,0.9c1.4,0,2.6-0.3,3.7-0.9c1-0.6,1.9-1.4,2.5-2.4c0.6-1,1.1-2.2,1.4-3.5
			c0.3-1.3,0.5-2.7,0.5-4.1v-17.7c0-1.4-0.2-2.8-0.5-4.1c-0.3-1.3-0.8-2.5-1.4-3.6c-0.6-1-1.5-1.9-2.5-2.5s-2.3-0.9-3.7-0.9
			c-1.4,0-2.6,0.3-3.6,0.9c-1,0.6-1.9,1.4-2.5,2.5c-0.6,1-1.1,2.2-1.4,3.6c-0.3,1.3-0.5,2.7-0.5,4.1V180.9z"/>
		<path d="M301.7,151.5v41.2h-5.9v-41.2H301.7z"/>
		<path d="M337.6,151.5v41.2h-2.9l-22.1-32.1v32.1h-1.5v-41.2h2.9l22.1,32.1v-32.1H337.6z"/>
		<path d="M346.5,160.3c0.2-2.6,1.3-4.8,3.4-6.4c2-1.6,4.8-2.4,8.4-2.4c3.6,0,6.4,0.8,8.4,2.3c2,1.5,3.2,3.7,3.4,6.5h-5.8
			c0-1.1,0-2.1-0.1-3.1c-0.1-1-0.4-1.9-0.8-2.6c-0.4-0.7-1-1.3-1.9-1.8c-0.8-0.4-1.9-0.6-3.1-0.6s-2.3,0.2-3.1,0.6
			c-0.8,0.4-1.4,1-1.8,1.8c-0.4,0.7-0.7,1.6-0.8,2.6c-0.1,1-0.2,2-0.1,3.1v23.5c0,1.1,0,2.1,0.1,3.1c0.1,1,0.4,1.9,0.8,2.6
			c0.4,0.7,1,1.3,1.8,1.8c0.8,0.4,1.8,0.6,3.1,0.6s2.3-0.2,3.1-0.6c0.8-0.4,1.4-1,1.9-1.8s0.7-1.6,0.8-2.6c0.1-1,0.2-2,0.1-3.1v-8.1
			h-4.5v-1.5H370v9.6c-0.2,2.8-1.3,5-3.4,6.5c-2,1.6-4.8,2.3-8.4,2.3c-3.6,0-6.4-0.8-8.4-2.4c-2-1.6-3.2-3.8-3.4-6.4V160.3z"/>
	</g>
	<g>
		<path d="M21.2,219.7H9.1v22.8H3.2v-41.2h20.6v1.5H9.1v15.4h12.1V219.7z"/>
		<path d="M51.7,242.5h-5.9L42.3,230H27.4l-3.6,12.5h-1.5l11.8-41.2H40L51.7,242.5z M41.8,228.5l-7-24.6l-7.1,24.6H41.8z"/>
		<path d="M56.7,210.1c0.2-2.8,1.1-5,2.6-6.5c1.6-1.6,4.1-2.3,7.6-2.3c1.8,0,3.3,0.2,4.5,0.6c1.2,0.4,2.3,1,3.1,1.8
			c0.8,0.8,1.4,1.7,1.8,2.8c0.4,1.1,0.7,2.3,0.8,3.6h-5.5c0-1.1,0.1-2.1,0.1-3.1c0-1-0.1-1.9-0.4-2.6c-0.3-0.7-0.7-1.3-1.4-1.8
			c-0.7-0.4-1.6-0.6-2.9-0.6c-1.3,0-2.2,0.4-2.8,1.3c-0.6,0.8-1.1,1.8-1.3,2.8c-0.3,1.2-0.4,2.6-0.3,4.1v9.8l14.7,4.2v9.6
			c-0.1,1.3-0.4,2.5-0.8,3.6s-1,2-1.9,2.8c-0.8,0.8-1.9,1.4-3.1,1.8c-1.3,0.4-2.8,0.6-4.5,0.6c-3.5,0-6.1-0.8-7.6-2.4
			c-1.5-1.6-2.4-3.7-2.6-6.5H62c0,1.1,0,2.1,0,3.1c0,1,0.2,1.8,0.5,2.6c0.3,0.7,0.8,1.3,1.5,1.7c0.7,0.4,1.7,0.6,3,0.6
			s2.2-0.4,2.9-1.3c0.6-0.8,1-1.8,1.3-2.8c0.3-1.2,0.4-2.5,0.3-4v-9.8l-14.7-4.2V210.1z"/>
		<path d="M81.1,201.3h26.5v1.5H97.3v39.7h-5.9v-39.7H81.1V201.3z"/>
		<path d="M136.2,202.8v15.5l12.1-0.1v1.5h-12.1V241H151v1.5h-20.6v-41.2H151v1.5H136.2z"/>
		<path d="M184,201.3v41.2h-2.9L159,210.4v32.1h-1.5v-41.2h2.9l22.1,32.1v-32.1H184z"/>
		<path d="M192.2,218.9c0-2.4,0.3-4.7,0.9-6.9c0.6-2.2,1.5-4,2.8-5.6c1.2-1.6,2.8-2.8,4.6-3.8c1.8-0.9,4-1.4,6.4-1.4
			c2.4,0,4.6,0.5,6.4,1.4c1.8,0.9,3.4,2.2,4.6,3.8c1.2,1.6,2.2,3.5,2.8,5.6c0.6,2.2,0.9,4.5,0.9,6.9v5.9c0,2.4-0.3,4.7-0.9,6.9
			c-0.6,2.2-1.5,4-2.8,5.6c-1.2,1.6-2.8,2.8-4.6,3.8c-1.8,0.9-4,1.4-6.4,1.4c-2.4,0-4.6-0.5-6.4-1.4c-1.8-0.9-3.4-2.2-4.6-3.8
			c-1.2-1.6-2.2-3.5-2.8-5.6c-0.6-2.2-0.9-4.5-0.9-6.9V218.9z M198.9,230.7c0,1.4,0.2,2.8,0.5,4.1c0.3,1.3,0.8,2.5,1.4,3.5
			c0.6,1,1.5,1.8,2.5,2.4c1,0.6,2.2,0.9,3.7,0.9c1.4,0,2.6-0.3,3.7-0.9c1-0.6,1.9-1.4,2.5-2.4c0.6-1,1.1-2.2,1.4-3.5
			c0.3-1.3,0.5-2.7,0.5-4.1v-17.7c0-1.4-0.2-2.8-0.5-4.1c-0.3-1.3-0.8-2.5-1.4-3.6c-0.6-1-1.5-1.9-2.5-2.5c-1-0.6-2.3-0.9-3.7-0.9
			c-1.4,0-2.6,0.3-3.7,0.9s-1.9,1.4-2.5,2.5c-0.6,1-1.1,2.2-1.4,3.6c-0.3,1.3-0.5,2.7-0.5,4.1V230.7z"/>
		<path d="M251.5,201.3h1.5v29.4c0,1.6-0.3,3.1-0.9,4.6c-0.6,1.4-1.4,2.7-2.5,3.7c-1.1,1.1-2.3,1.9-3.7,2.5c-1.4,0.6-3,0.9-4.6,0.9
			c-1.6,0-3.1-0.3-4.6-0.9c-1.4-0.6-2.7-1.5-3.7-2.5c-1.1-1.1-1.9-2.3-2.5-3.7c-0.6-1.4-0.9-3-0.9-4.6v-29.4h5.9v29.4
			c0,1.3,0.1,2.6,0.4,3.9c0.2,1.2,0.6,2.3,1.1,3.3c0.5,1,1.1,1.7,1.9,2.3c0.7,0.6,1.6,0.9,2.6,0.9c1.6,0,3-0.3,4.3-0.9
			c1.3-0.6,2.4-1.3,3.2-2.3c0.9-1,1.6-2.1,2.1-3.3c0.5-1.2,0.7-2.5,0.7-3.9V201.3z"/>
		<path d="M261.4,210.1c0.2-2.6,1.3-4.8,3.4-6.4c2-1.6,4.8-2.4,8.4-2.4c3.6,0,6.4,0.8,8.4,2.3c2,1.5,3.2,3.7,3.4,6.5h-5.8
			c0-1.1,0-2.1-0.1-3.1c-0.1-1-0.4-1.9-0.8-2.6c-0.4-0.7-1-1.3-1.9-1.8c-0.8-0.4-1.9-0.6-3.1-0.6s-2.3,0.2-3.1,0.6
			c-0.8,0.4-1.4,1-1.8,1.8c-0.4,0.7-0.7,1.6-0.8,2.6c-0.1,1-0.2,2-0.1,3.1v23.5c0,1.1,0,2.1,0.1,3.1c0.1,1,0.4,1.9,0.8,2.6
			c0.4,0.7,1,1.3,1.8,1.8c0.8,0.4,1.8,0.6,3.1,0.6s2.3-0.2,3.1-0.6c0.8-0.4,1.4-1,1.9-1.8c0.4-0.7,0.7-1.6,0.8-2.6
			c0.1-1,0.2-2,0.1-3.1v-8.1h-4.5v-1.5H285v9.6c-0.2,2.8-1.3,5-3.4,6.5c-2,1.6-4.8,2.3-8.4,2.3c-3.6,0-6.4-0.8-8.4-2.4
			c-2-1.6-3.2-3.8-3.4-6.4V210.1z"/>
		<path d="M313.7,201.3h5.9v41.2h-5.9v-22.8H299v22.8h-5.9v-41.2h5.9v16.9h14.7V201.3z"/>
		<path d="M326.2,242.5v-4.1h4.1v4.1H326.2z"/>
		<path d="M333.2,205.5v-4.2h4.2v7.1h-1.8c0.1-0.6,0.3-1,0.3-1.5c0-0.4,0-0.7-0.1-1c-0.1-0.3-0.4-0.4-0.8-0.4H333.2z M339.1,201.3
			h4.2v7.1h-1.8c0.1-0.6,0.3-1,0.3-1.5c0-0.4,0-0.7-0.1-1c-0.1-0.3-0.4-0.4-0.8-0.4h-1.8V201.3z"/>
	</g>
</g>
</svg>
