<?xml version="1.0" encoding="UTF-8"?>
<svg id="Layer_1" data-name="Layer 1" xmlns="http://www.w3.org/2000/svg" version="1.1" viewBox="0 0 393 383">
  <defs>
    <style>
      .cls-1 {
        fill: #000;
        stroke-width: 0px;
      }

      .cls-2 {
        isolation: isolate;
      }
    </style>
  </defs>
  <g id="Tomorrowland" class="cls-2">
    <g class="cls-2">
      <path class="cls-1" d="M24.1,345.6v-30.1h-9.1v-3.6h22.1v3.6h-9.1v30.1h-3.9Z"/>
      <path class="cls-1" d="M45.4,344.7c-1.6-.9-2.7-2.4-3.1-4.6-.4-2.2-.7-6-.7-11.3s.2-9.1.7-11.3,1.5-3.8,3.1-4.6c1.6-.9,4.4-1.3,8.2-1.3s6.6.4,8.2,1.3c1.6.9,2.6,2.4,3.1,4.6.4,2.2.7,6,.7,11.3s-.2,9.1-.7,11.3c-.4,2.2-1.5,3.8-3.1,4.6-1.6.9-4.4,1.3-8.2,1.3s-6.6-.4-8.2-1.3ZM59.2,341.8c1-.5,1.6-1.6,2-3.3.3-1.8.5-5,.5-9.8s-.2-8-.5-9.8c-.3-1.8-1-2.9-2-3.3-1-.5-2.8-.7-5.6-.7s-4.6.2-5.6.7c-1,.5-1.7,1.6-2,3.3-.3,1.8-.5,5-.5,9.8s.2,8,.5,9.8c.3,1.8,1,2.9,2,3.3,1,.5,2.9.7,5.6.7s4.6-.2,5.6-.7Z"/>
      <path class="cls-1" d="M99.9,345.6v-27.3h-.2l-9.7,27.3h-3.3l-9.6-27.3h-.2v27.3h-3.7v-33.7h5.6l9.6,27.2h.3l9.6-27.2h5.5v33.7h-3.8Z"/>
      <path class="cls-1" d="M115.1,344.7c-1.6-.9-2.7-2.4-3.1-4.6-.4-2.2-.7-6-.7-11.3s.2-9.1.7-11.3,1.5-3.8,3.1-4.6c1.6-.9,4.4-1.3,8.2-1.3s6.6.4,8.2,1.3c1.6.9,2.6,2.4,3.1,4.6.4,2.2.7,6,.7,11.3s-.2,9.1-.7,11.3c-.4,2.2-1.5,3.8-3.1,4.6s-4.4,1.3-8.2,1.3-6.6-.4-8.2-1.3ZM128.9,341.8c1-.5,1.6-1.6,2-3.3.3-1.8.5-5,.5-9.8s-.2-8-.5-9.8c-.3-1.8-1-2.9-2-3.3-1-.5-2.8-.7-5.6-.7s-4.6.2-5.6.7c-1,.5-1.7,1.6-2,3.3-.3,1.8-.5,5-.5,9.8s.2,8,.5,9.8c.3,1.8,1,2.9,2,3.3,1,.5,2.9.7,5.6.7s4.6-.2,5.6-.7Z"/>
      <path class="cls-1" d="M160.9,345.6l-4.7-13.4h-9.4v13.4h-3.9v-33.7h13c2.5,0,4.4.4,5.7,1.3,1.3.9,2.1,2,2.5,3.4.4,1.4.6,3.2.6,5.5s-.3,4.5-.9,6.1c-.6,1.6-1.8,2.7-3.7,3.4l5.1,14.1h-4.2ZM158.5,328c.9-.5,1.4-1.2,1.7-2.1.3-.9.4-2.2.4-3.9s-.1-3-.3-3.9c-.2-.9-.8-1.6-1.6-2s-2.1-.7-3.8-.7h-8v13.4h7.7c1.8,0,3.1-.2,4-.7Z"/>
      <path class="cls-1" d="M190,345.6l-4.7-13.4h-9.4v13.4h-3.9v-33.7h13c2.5,0,4.4.4,5.7,1.3,1.3.9,2.1,2,2.5,3.4.4,1.4.6,3.2.6,5.5s-.3,4.5-.9,6.1c-.6,1.6-1.8,2.7-3.7,3.4l5.1,14.1h-4.2ZM187.6,328c.9-.5,1.4-1.2,1.7-2.1.3-.9.4-2.2.4-3.9s-.1-3-.3-3.9c-.2-.9-.8-1.6-1.6-2s-2.1-.7-3.8-.7h-8v13.4h7.7c1.8,0,3.1-.2,4-.7Z"/>
      <path class="cls-1" d="M203.9,344.7c-1.6-.9-2.7-2.4-3.1-4.6-.4-2.2-.7-6-.7-11.3s.2-9.1.7-11.3,1.5-3.8,3.1-4.6c1.6-.9,4.4-1.3,8.2-1.3s6.6.4,8.2,1.3c1.6.9,2.6,2.4,3.1,4.6.4,2.2.7,6,.7,11.3s-.2,9.1-.7,11.3c-.4,2.2-1.5,3.8-3.1,4.6s-4.4,1.3-8.2,1.3-6.6-.4-8.2-1.3ZM217.7,341.8c1-.5,1.6-1.6,2-3.3.3-1.8.5-5,.5-9.8s-.2-8-.5-9.8c-.3-1.8-1-2.9-2-3.3-1-.5-2.8-.7-5.6-.7s-4.6.2-5.6.7c-1,.5-1.7,1.6-2,3.3-.3,1.8-.5,5-.5,9.8s.2,8,.5,9.8c.3,1.8,1,2.9,2,3.3,1,.5,2.9.7,5.6.7s4.6-.2,5.6-.7Z"/>
      <path class="cls-1" d="M254.8,345.6l-6.8-27.3h-.2l-6.8,27.3h-4.9l-7.7-33.7h4l6.2,28.4h.3l6.9-28.4h4.4l7,28.4h.3l6.1-28.4h3.9l-7.7,33.7h-4.9Z"/>
      <path class="cls-1" d="M273,345.6v-33.7h3.9v30.1h13.3v3.6h-17.2Z"/>
      <path class="cls-1" d="M315.3,345.6l-3-9.2h-12.7l-2.9,9.2h-4l10.8-33.7h5.1l10.8,33.7h-4.1ZM306.1,316.2h-.2l-5.3,16.7h10.7l-5.2-16.7Z"/>
      <path class="cls-1" d="M343.8,345.6l-14.9-25.9h-.2v25.9h-3.8v-33.7h4l14.7,25.4h.2v-25.4h3.8v33.7h-3.8Z"/>
      <path class="cls-1" d="M356.2,311.9h9.4c4,0,6.9.4,8.5,1.2s2.7,2.3,3.2,4.5c.5,2.2.7,5.9.7,11.1s-.2,8.9-.7,11.1c-.5,2.2-1.5,3.7-3.2,4.5s-4.5,1.2-8.5,1.2h-9.4v-33.7ZM365.1,342.1c3.1,0,5.2-.2,6.2-.7,1.1-.4,1.8-1.5,2.2-3.2.3-1.7.5-4.9.5-9.5s-.2-7.8-.5-9.5c-.3-1.7-1.1-2.8-2.2-3.2-1.1-.4-3.2-.7-6.2-.7h-5v26.8h5Z"/>
    </g>
  </g>
  <g id="MEETS" class="cls-2">
    <g class="cls-2">
      <path class="cls-1" d="M85,295.6v-62.7h-.9l-16.5,62.7h-16.1l-16.3-62.7h-.9v62.7H15v-90.6h29.4l15.1,58.1h.9l15.1-58.1h29.1v90.6h-19.8Z"/>
      <path class="cls-1" d="M120,295.6v-90.6h54.5v17h-34.1v19.4h29.2v17h-29.2v20.3h34.1v17h-54.5Z"/>
      <path class="cls-1" d="M187.7,295.6v-90.6h54.5v17h-34.1v19.4h29.2v17h-29.2v20.3h34.1v17h-54.5Z"/>
      <path class="cls-1" d="M270,295.6v-73h-21.3v-17.6h63.3v17.6h-21.5v73h-20.5Z"/>
      <path class="cls-1" d="M319.6,294.4v-16.1c10.9.9,18.6,1.3,23.2,1.3s6.4-.2,8.4-.5c2-.4,3.5-1,4.3-1.8.8-.8,1.3-1.8,1.5-2.9.2-1.1.3-2.8.3-4.9s-.2-4.8-.5-6c-.4-1.2-1.1-2-2.2-2.6-1.1-.5-3-1-5.6-1.4l-14.6-2.1c-6.7-1-11.2-3.6-13.6-7.8-2.4-4.2-3.6-10.3-3.6-18.2s1.3-13.5,3.8-17.5c2.5-4,6-6.7,10.4-8,4.4-1.3,10-2,16.7-2s16.9.9,25.7,2.6v15.8c-7.9-1-14.9-1.4-21.1-1.4s-10.7.6-12.5,1.8c-1.1.6-1.7,1.5-2,2.6-.3,1.1-.4,2.8-.4,5.1s.1,4.3.4,5.4c.3,1.1.9,1.8,1.8,2.3.9.5,2.5.9,4.8,1.3l15.7,2.2c3.5.5,6.4,1.4,8.8,2.6,2.3,1.2,4.2,3.3,5.7,6.3,1.8,3.9,2.8,9.4,2.8,16.6s-1.2,14.8-3.6,19.1c-2.4,4.3-5.6,7.1-9.7,8.4-4.1,1.3-9.4,2-16,2-11,0-20.7-.7-29.1-2.2Z"/>
    </g>
  </g>
  <g id="Formula" class="cls-2">
    <g class="cls-2">
      <path class="cls-1" d="M15,191.5v-55.5h29v4.3h-24.3v22.2h21.7v4.2h-21.7v24.7h-4.8Z"/>
      <path class="cls-1" d="M58.6,190.2c-2.6-1.3-4.2-3.9-5-7.5-.8-3.7-1.1-10-1.1-18.8s.4-15.1,1.1-18.8c.8-3.7,2.4-6.2,5-7.5,2.6-1.3,7-2,13.2-2s10.7.7,13.3,2c2.6,1.3,4.2,3.9,5,7.5.8,3.7,1.1,10,1.1,18.8s-.4,15.1-1.1,18.8c-.8,3.7-2.4,6.2-5,7.5-2.6,1.3-7,2-13.3,2s-10.6-.7-13.2-2ZM82,186.7c1.8-.8,3-2.8,3.6-5.9.6-3.1.9-8.8.9-17s-.3-13.9-.9-17c-.6-3.1-1.8-5.1-3.6-5.9-1.8-.8-5.2-1.2-10.2-1.2s-8.2.4-10.1,1.2c-1.8.8-3,2.8-3.6,5.9-.6,3.1-.9,8.8-.9,17s.3,13.9.9,17c.6,3.1,1.8,5.1,3.6,5.9,1.8.8,5.2,1.2,10.1,1.2s8.3-.4,10.2-1.2Z"/>
      <path class="cls-1" d="M134.7,191.5l-8.1-23c-.5,0-1.2,0-2.1,0h-15.4v22.9h-4.7v-55.5h20.9c4,0,7.1.7,9.1,2.1,2,1.4,3.3,3.3,3.9,5.5.6,2.2.8,5.1.8,8.7s-.5,7.4-1.5,10c-1,2.6-3.1,4.4-6.4,5.4l8.6,23.8h-5.1ZM130.7,163.1c1.5-.9,2.5-2.2,2.9-3.9.4-1.7.6-3.9.6-6.9s-.2-5.2-.6-6.9c-.4-1.6-1.3-2.9-2.7-3.8-1.4-.9-3.6-1.4-6.6-1.4h-15.2v24.1h14.7c3.1,0,5.4-.5,7-1.4Z"/>
      <path class="cls-1" d="M196.4,191.5v-47h-.3l-17.6,47h-4.2l-17.5-47h-.3v47h-4.5v-55.5h6.6l17.7,47.6h.4l17.8-47.6h6.5v55.5h-4.7Z"/>
      <path class="cls-1" d="M251.5,136.1v31.5c0,7.1-.4,12.3-1.1,15.6-.8,3.3-2.4,5.6-4.8,6.9-2.5,1.4-6.5,2.1-12.1,2.1s-9.6-.7-12.1-2.1-4.1-3.7-4.9-6.9c-.8-3.3-1.1-8.5-1.1-15.6v-31.5h4.8v34.2c0,5.3.3,9.1.8,11.4.5,2.3,1.7,3.9,3.5,4.8,1.8.9,4.9,1.4,9.1,1.4s7.3-.5,9.1-1.4c1.8-.9,3-2.6,3.5-4.8.5-2.3.8-6.1.8-11.4v-34.2h4.8Z"/>
      <path class="cls-1" d="M265.7,191.5v-55.5h4.8v51.1h22.9v4.4h-27.7Z"/>
      <path class="cls-1" d="M335.5,191.5l-5.5-16.4h-22.2l-5.5,16.4h-4.8l18.6-55.5h5.8l18.6,55.5h-5ZM319.2,142h-.4l-9.6,28.9h19.5l-9.5-28.9Z"/>
      <path class="cls-1" d="M372.7,191.5v-49.7l-10,5.2v-4.6l11.1-6.4h3.5v55.5h-4.7Z"/>
    </g>
  </g>
  <g id="Where" class="cls-2">
    <g class="cls-2">
      <path class="cls-1" d="M76.9,119.6l-10.6-54.1h-.7l-10.6,54.1h-24.5L15,37h18.7l10,61.8h.7l11.8-61.8h20.3l12,61.8h.7l9.4-61.8h18.6l-15.7,82.5h-24.5Z"/>
      <path class="cls-1" d="M164.2,119.6v-33.3h-22.1v33.3h-18.7V37h18.7v32.9h22.1v-32.9h18.7v82.5h-18.7Z"/>
      <path class="cls-1" d="M196.7,119.6V37h49.7v15.5h-31.1v17.6h26.6v15.5h-26.6v18.5h31.1v15.5h-49.7Z"/>
      <path class="cls-1" d="M298.3,119.6l-9.6-28.9h-12v28.9h-18.6V37h33.9c6.8,0,11.9,1,15.4,3.1,3.4,2,5.7,4.9,6.9,8.7,1.2,3.8,1.7,8.8,1.7,15s-.6,10.8-1.9,14.9c-1.3,4.1-3.9,7.1-7.8,9.1l11.5,31.8h-19.6ZM293.6,74.5c1.5-.6,2.5-1.6,2.9-3.1.5-1.5.7-4,.7-7.5s-.2-6.1-.7-7.6c-.4-1.5-1.4-2.5-2.9-3-1.5-.5-4-.8-7.5-.8h-9.5v22.8h9.4c3.5,0,6-.3,7.5-.8Z"/>
      <path class="cls-1" d="M327.7,119.6V37h49.7v15.5h-31.1v17.6h26.6v15.5h-26.6v18.5h31.1v15.5h-49.7Z"/>
    </g>
  </g>
</svg>