<svg id="Group_19" data-name="Group 19" xmlns="http://www.w3.org/2000/svg" xmlns:xlink="http://www.w3.org/1999/xlink" width="745.1" height="634.084" viewBox="0 0 745.1 634.084">
  <defs>
    <clipPath id="clip-path">
      <rect id="Rectangle_57" data-name="Rectangle 57" width="745.1" height="634.084" fill="#fff"/>
    </clipPath>
  </defs>
  <path id="Path_51" data-name="Path 51" d="M.1,274.9v7.387H18.774v61.769h8.005V282.287H45.45V274.9Z" transform="translate(0.105 289.209)" fill="#fff"/>
  <g id="Group_12" data-name="Group 12">
    <g id="Group_11" data-name="Group 11" clip-path="url(#clip-path)">
      <path id="Path_52" data-name="Path 52" d="M34.5,342.523a12.854,12.854,0,0,1-6.361-9.439c-.821-4.515-1.436-12.312-1.436-23.188s.41-18.674,1.436-23.188,3.078-7.8,6.361-9.439c3.283-1.847,9.029-2.668,16.827-2.668s13.544.821,16.827,2.668,5.335,4.925,6.361,9.439c.821,4.515,1.436,12.312,1.436,23.188s-.41,18.674-1.436,23.188c-.821,4.514-3.078,7.8-6.361,9.439-3.283,1.847-9.029,2.668-16.827,2.668s-13.544-.821-16.827-2.668m28.318-5.951c2.052-1.026,3.283-3.283,4.1-6.772.616-3.694,1.026-10.26,1.026-20.11s-.41-16.416-1.026-20.11-2.052-5.951-4.1-6.772c-2.052-1.026-5.746-1.436-11.491-1.436s-9.439.41-11.492,1.436-3.488,3.283-4.1,6.772c-.616,3.694-1.026,10.26-1.026,20.11s.41,16.416,1.026,20.11,2.052,5.951,4.1,6.772c2.052,1.026,5.951,1.436,11.492,1.436s9.439-.41,11.491-1.436" transform="translate(28.09 288.894)" fill="#fff"/>
      <path id="Path_53" data-name="Path 53" d="M113.09,344.054V288.033h-.41l-19.9,56.021H86L66.3,288.033h-.41v56.021H58.3V274.9H69.792l19.7,55.816h.616l19.7-55.816h11.286v69.154h-8Z" transform="translate(61.335 289.209)" fill="#fff"/>
      <path id="Path_54" data-name="Path 54" d="M104.2,342.523a12.854,12.854,0,0,1-6.361-9.439c-.821-4.515-1.436-12.312-1.436-23.188s.41-18.674,1.436-23.188,3.078-7.8,6.361-9.439c3.283-1.847,9.029-2.668,16.827-2.668s13.544.821,16.827,2.668,5.335,4.925,6.361,9.439c.821,4.515,1.436,12.312,1.436,23.188s-.41,18.674-1.436,23.188c-.821,4.514-3.078,7.8-6.361,9.439s-9.029,2.668-16.827,2.668-13.544-.821-16.827-2.668m28.318-5.951c2.052-1.026,3.283-3.283,4.1-6.772.616-3.694,1.026-10.26,1.026-20.11s-.41-16.416-1.026-20.11-2.052-5.951-4.1-6.772c-2.052-1.026-5.746-1.436-11.491-1.436s-9.439.41-11.492,1.436-3.488,3.283-4.1,6.772c-.616,3.694-1.026,10.26-1.026,20.11s.41,16.416,1.026,20.11,2.052,5.951,4.1,6.772c2.052,1.026,5.951,1.436,11.492,1.436s9.439-.41,11.491-1.436" transform="translate(101.418 288.894)" fill="#fff"/>
      <path id="Path_55" data-name="Path 55" d="M164.937,344.054l-9.645-27.5H136v27.5h-8V274.9h26.677c5.13,0,9.029.821,11.7,2.668a12.315,12.315,0,0,1,5.13,6.977,41.909,41.909,0,0,1,1.231,11.286,37.447,37.447,0,0,1-1.847,12.518c-1.231,3.283-3.694,5.54-7.593,6.977l10.465,28.934h-8.619Zm-4.925-36.116a7.228,7.228,0,0,0,3.488-4.309,27.222,27.222,0,0,0,.821-8,39.332,39.332,0,0,0-.616-8,6.047,6.047,0,0,0-3.283-4.1,18.122,18.122,0,0,0-7.8-1.436H136.208v27.5h15.8c3.694,0,6.361-.41,8.208-1.436Z" transform="translate(134.663 289.209)" fill="#fff"/>
      <path id="Path_56" data-name="Path 56" d="M194.037,344.054l-9.645-27.5H165.1v27.5h-8V274.9h26.677c5.13,0,9.029.821,11.7,2.668a12.316,12.316,0,0,1,5.13,6.977,41.91,41.91,0,0,1,1.231,11.286,37.448,37.448,0,0,1-1.847,12.518c-1.231,3.283-3.694,5.54-7.593,6.977l10.465,28.934h-8.619Zm-4.925-36.116a7.228,7.228,0,0,0,3.488-4.309,27.222,27.222,0,0,0,.821-8,39.337,39.337,0,0,0-.616-8,6.047,6.047,0,0,0-3.283-4.1,18.122,18.122,0,0,0-7.8-1.436H165.308v27.5h15.8c3.694,0,6.361-.41,8.208-1.436Z" transform="translate(165.277 289.209)" fill="#fff"/>
      <path id="Path_57" data-name="Path 57" d="M193,342.523a12.854,12.854,0,0,1-6.361-9.439c-.821-4.515-1.436-12.312-1.436-23.188s.41-18.674,1.436-23.188,3.078-7.8,6.361-9.439c3.283-1.847,9.029-2.668,16.827-2.668s13.544.821,16.827,2.668,5.335,4.925,6.361,9.439c.821,4.515,1.436,12.312,1.436,23.188s-.41,18.674-1.436,23.188c-.821,4.514-3.078,7.8-6.361,9.439s-9.029,2.668-16.827,2.668-13.544-.821-16.827-2.668m28.318-5.951c2.052-1.026,3.283-3.283,4.1-6.772.616-3.694,1.026-10.26,1.026-20.11s-.41-16.416-1.026-20.11-2.052-5.951-4.1-6.772c-2.052-1.026-5.746-1.436-11.492-1.436s-9.439.41-11.491,1.436-3.489,3.283-4.1,6.772c-.616,3.694-1.026,10.26-1.026,20.11s.41,16.416,1.026,20.11,2.052,5.951,4.1,6.772c2.052,1.026,5.951,1.436,11.491,1.436s9.439-.41,11.492-1.436" transform="translate(194.84 288.894)" fill="#fff"/>
      <path id="Path_58" data-name="Path 58" d="M267.674,344.054,253.72,288.033h-.41l-13.954,56.021H229.3L213.5,274.9h8.208l12.723,58.278h.616L249.206,274.9h9.029L272.6,333.178h.616L285.732,274.9h8l-15.8,69.154h-10.26Z" transform="translate(224.613 289.209)" fill="#fff"/>
      <path id="Path_59" data-name="Path 59" d="M258.1,344.054V274.9h8v61.767H293.4v7.387Z" transform="translate(271.535 289.209)" fill="#fff"/>
      <path id="Path_60" data-name="Path 60" d="M324.176,344.054l-6.156-18.879H291.959l-5.951,18.879H277.8L299.962,274.9h10.465l22.162,69.154ZM305.3,283.724h-.41l-10.876,34.269h21.957Z" transform="translate(292.26 289.209)" fill="#fff"/>
      <path id="Path_61" data-name="Path 61" d="M348.784,344.054l-30.576-53.148h-.41v53.148H310V274.9h8.208l30.165,52.122h.41V274.9h7.8v69.154Z" transform="translate(326.136 289.209)" fill="#fff"/>
      <path id="Path_62" data-name="Path 62" d="M341.3,275.005h19.289c8.208,0,14.159.821,17.442,2.462s5.541,4.72,6.567,9.234,1.436,12.107,1.436,22.778-.41,18.263-1.436,22.778-3.078,7.593-6.567,9.234-9.234,2.462-17.442,2.462H341.3V275.005Zm18.263,61.972c6.361,0,10.671-.41,12.723-1.436,2.257-.821,3.694-3.078,4.515-6.567.616-3.488,1.026-10.055,1.026-19.494s-.41-16.006-1.026-19.495-2.257-5.746-4.515-6.567-6.566-1.436-12.723-1.436H349.3v55Z" transform="translate(359.065 289.104)" fill="#fff"/>
    </g>
  </g>
  <path id="Path_63" data-name="Path 63" d="M124.249,168,93.265,287.224H91.418L60.43,168H.1V353.916H39.706V225.252h1.847L75,353.916H108.04L141.9,225.252h1.847V353.916h40.222V168Z" transform="translate(0.105 176.744)" fill="#fff"/>
  <path id="Path_64" data-name="Path 64" d="M105.1,353.916V168H216.937v34.885H146.962v39.81h59.92V277.58h-59.92v41.657h69.975v34.885H105.1Z" transform="translate(110.571 176.745)" fill="#fff"/>
  <path id="Path_65" data-name="Path 65" d="M172.8,353.916V168H284.637v34.885H214.662v39.81h59.92V277.58h-59.92v41.657h69.975v34.885H172.8Z" transform="translate(181.795 176.745)" fill="#fff"/>
  <path id="Path_66" data-name="Path 66" d="M277.509,353.916v-149.8H233.8V168H363.695v36.116H319.576v149.8Z" transform="translate(245.97 176.745)" fill="#fff"/>
  <g id="Group_14" data-name="Group 14">
    <g id="Group_13" data-name="Group 13" clip-path="url(#clip-path)">
      <path id="Path_67" data-name="Path 67" d="M307.225,352.611V319.573c22.367,1.847,38.168,2.668,47.608,2.668s13.133-.41,17.237-1.026c4.1-.821,7.182-2.052,8.824-3.694a11.129,11.129,0,0,0,3.078-5.951,61.9,61.9,0,0,0,.616-10.055,65.712,65.712,0,0,0-1.026-12.312,8.961,8.961,0,0,0-4.514-5.335,47.936,47.936,0,0,0-11.492-2.873l-29.96-4.309c-13.749-2.052-22.983-7.387-27.908-16.006s-7.387-21.136-7.387-37.347,2.668-27.7,7.8-35.911A36.968,36.968,0,0,1,331.439,171c9.029-2.668,20.52-4.1,34.269-4.1a307.633,307.633,0,0,1,52.738,5.335v32.422a344.512,344.512,0,0,0-43.3-2.873c-12.723,0-21.957,1.231-25.651,3.694a8.2,8.2,0,0,0-4.1,5.335c-.616,2.257-.821,5.746-.821,10.465s.205,8.824.821,11.081a7.247,7.247,0,0,0,3.694,4.72c1.847,1.026,5.13,1.847,9.85,2.668l32.217,4.515a58.685,58.685,0,0,1,18.058,5.335q7.08,3.694,11.7,12.928c3.694,8,5.746,19.289,5.746,34.064s-2.462,30.37-7.387,39.194-11.491,14.57-19.9,17.237-19.289,4.1-32.833,4.1c-22.573,0-42.477-1.436-59.715-4.515Z" transform="translate(318.035 175.587)" fill="#fff"/>
    </g>
  </g>
  <path id="Path_68" data-name="Path 68" d="M0,212.684l.205.2v-.2ZM.205,99V212.684H9.85V162h44.53v-8.619H9.85V107.822H59.715V99Z" transform="translate(0 104.153)" fill="#fff"/>
  <g id="Group_16" data-name="Group 16">
    <g id="Group_15" data-name="Group 15" clip-path="url(#clip-path)">
      <path id="Path_69" data-name="Path 69" d="M50.118,210.642c-5.335-2.668-8.619-8-10.26-15.39-1.642-7.593-2.257-20.521-2.257-38.579s.821-30.986,2.257-38.579c1.642-7.593,4.925-12.723,10.26-15.39S64.482,98.6,77.2,98.6s21.957,1.436,27.292,4.1,8.619,8,10.26,15.39c1.642,7.593,2.257,20.521,2.257,38.579s-.821,30.986-2.257,38.579c-1.642,7.593-4.925,12.723-10.26,15.39s-14.364,4.1-27.292,4.1-21.752-1.436-27.087-4.1m48.018-7.182c3.694-1.642,6.156-5.746,7.387-12.107s1.847-18.058,1.847-34.885-.616-28.524-1.847-34.885-3.694-10.465-7.387-12.107-10.671-2.462-20.931-2.462-16.827.821-20.726,2.462c-3.694,1.642-6.156,5.746-7.387,12.107s-1.847,18.058-1.847,34.885.616,28.524,1.847,34.885,3.694,10.465,7.387,12.107,10.671,2.462,20.726,2.462,17.032-.821,20.931-2.462" transform="translate(39.557 103.732)" fill="#fff"/>
      <path id="Path_70" data-name="Path 70" d="M151.677,212.994l-16.622-47.2H99.145v46.992H89.5V98.9h42.888c8.208,0,14.57,1.436,18.674,4.309a19.989,19.989,0,0,1,8,11.286c1.231,4.515,1.642,10.465,1.642,17.853s-1.026,15.185-3.078,20.521S151.267,161.9,144.5,163.95l17.648,48.839H151.677Zm-8.208-58.278a12.4,12.4,0,0,0,5.951-8,63.2,63.2,0,0,0,1.231-14.159,63.2,63.2,0,0,0-1.231-14.159,12.647,12.647,0,0,0-5.541-7.8c-2.873-1.847-7.387-2.873-13.544-2.873H99.145v49.454H129.31c6.361,0,11.081-1.026,14.364-2.873Z" transform="translate(94.159 104.048)" fill="#fff"/>
      <path id="Path_71" data-name="Path 71" d="M228.211,212.889V116.442H227.6l-36.116,96.446h-8.619L146.95,116.442h-.616v96.446H137.1V99h13.544l36.321,97.678h.821L224.312,99h13.338V212.889h-9.439Z" transform="translate(144.236 104.153)" fill="#fff"/>
      <path id="Path_72" data-name="Path 72" d="M274.579,99.1v64.64c0,14.57-.821,25.24-2.257,32.012q-2.462,10.158-9.85,14.159c-5.13,2.873-13.338,4.309-24.83,4.309s-19.7-1.436-24.83-4.309-8.413-7.593-10.055-14.159c-1.642-6.772-2.257-17.442-2.257-32.012V99.1h9.85v70.18c0,10.876.616,18.674,1.642,23.393s3.488,8,7.182,9.85,10.055,2.873,18.674,2.873,14.98-1.026,18.674-2.873,6.156-5.335,7.182-9.85c1.026-4.72,1.642-12.517,1.642-23.393V99.1h9.234Z" transform="translate(210.936 104.258)" fill="#fff"/>
      <path id="Path_73" data-name="Path 73" d="M250.8,212.889V99h9.85V203.86h46.992v9.029Z" transform="translate(263.855 104.153)" fill="#fff"/>
      <path id="Path_74" data-name="Path 74" d="M360.578,212.889l-11.286-33.654H303.736L292.45,212.889H282.6L320.768,99h11.9l38.168,113.889ZM327.13,111.312h-.821l-19.7,59.3h40.015Z" transform="translate(297.31 104.153)" fill="#fff"/>
      <path id="Path_75" data-name="Path 75" d="M368.321,212.889V110.9L347.8,121.573v-9.439L370.578,99h7.182V212.889h-9.439Z" transform="translate(365.904 104.153)" fill="#fff"/>
    </g>
  </g>
  <path id="Path_76" data-name="Path 76" d="M171.652,0,152.362,126.815h-1.436L126.3,0H84.645L60.43,126.815H58.994L38.473,0H.1L31.907,169.5H82.182L103.934,58.482h1.436L127.122,169.5l.205-.205H177.6L209.82,0Z" transform="translate(0.105 0)" fill="#fff"/>
  <path id="Path_77" data-name="Path 77" d="M192.224,169.292v0ZM192.224,0V67.51h-45.35V0H108.5V169.5h38.373V101.164h45.35v68.128H230.6V0Z" transform="translate(114.148)" fill="#fff"/>
  <path id="Path_78" data-name="Path 78" d="M181.8,0V169.5H283.787V137.691H219.968V99.73h54.585V67.921H219.968V31.807h63.819V0Z" transform="translate(191.263 0)" fill="#fff"/>
  <g id="Group_18" data-name="Group 18">
    <g id="Group_17" data-name="Group 17" clip-path="url(#clip-path)">
      <path id="Path_79" data-name="Path 79" d="M325.693,169.5l-19.7-59.3H281.368v59.3H243.2V0h69.565c13.954,0,24.419,2.052,31.6,6.361a30.767,30.767,0,0,1,14.159,17.853c2.462,7.8,3.488,18.058,3.488,30.781s-1.231,22.162-3.9,30.576a30.7,30.7,0,0,1-16.006,18.674l23.6,65.255H325.693Zm-9.645-92.548A9.235,9.235,0,0,0,322,70.591c1.026-3.078,1.436-8.208,1.436-15.39s-.41-12.518-1.436-15.6a8.586,8.586,0,0,0-5.951-6.156c-3.078-1.026-8.208-1.642-15.39-1.642H281.163V78.594h19.289c7.182,0,12.312-.616,15.39-1.642Z" transform="translate(255.859)" fill="#fff"/>
      <path id="Path_80" data-name="Path 80" d="M312.8,169.5V0H414.787V31.807H350.968V67.923h54.585V99.73H350.968v37.963h63.819V169.5Z" transform="translate(329.082)" fill="#fff"/>
    </g>
  </g>
</svg>
