<svg id="Group_12" data-name="Group 12" xmlns="http://www.w3.org/2000/svg" xmlns:xlink="http://www.w3.org/1999/xlink" width="178.153" height="180.604" viewBox="0 0 178.153 180.604">
  <defs>
    <clipPath id="clip-path">
      <rect id="Rectangle_3" data-name="Rectangle 3" width="178.153" height="180.603" fill="#def205"/>
    </clipPath>
  </defs>
  <g id="Group_4" data-name="Group 4" clip-path="url(#clip-path)">
    <path id="Path_5" data-name="Path 5" d="M377.469.022,384.409,0a5.538,5.538,0,0,1,3.274.771,3.374,3.374,0,0,1,1.352,1.985,14.372,14.372,0,0,1,.293,3.168A13.93,13.93,0,0,1,389.04,9.1a3.423,3.423,0,0,1-1.367,2.022,5.484,5.484,0,0,1-3.226.792l-5.637.018.024,7.646-1.3,0Zm6.775,10.666a4.583,4.583,0,0,0,2.505-.548,2.407,2.407,0,0,0,1.029-1.51,12.466,12.466,0,0,0,.218-2.7,12.273,12.273,0,0,0-.235-2.685,2.406,2.406,0,0,0-1.039-1.489,4.588,4.588,0,0,0-2.508-.532l-5.438.017.03,9.466Z" transform="translate(-293.41 0)" fill="#def205"/>
    <path id="Path_6" data-name="Path 6" d="M448.251,41.01a2.857,2.857,0,0,1-1.026-2.265,24.818,24.818,0,0,1,.581-4.808,25.054,25.054,0,0,1,1.223-4.7,2.891,2.891,0,0,1,1.8-1.753,8.362,8.362,0,0,1,3.742.108,8.464,8.464,0,0,1,3.548,1.285,2.9,2.9,0,0,1,1.035,2.3,25.125,25.125,0,0,1-.583,4.822,24.855,24.855,0,0,1-1.221,4.686,2.839,2.839,0,0,1-1.8,1.725,8.64,8.64,0,0,1-3.768-.127,8.546,8.546,0,0,1-3.536-1.269m6.755.264a2.111,2.111,0,0,0,1.334-1.409,29.821,29.821,0,0,0,.982-4.109,30.13,30.13,0,0,0,.6-4.212,2.162,2.162,0,0,0-.722-1.816,6.679,6.679,0,0,0-2.834-1.019,6.583,6.583,0,0,0-2.981-.093,2.155,2.155,0,0,0-1.337,1.423,30.123,30.123,0,0,0-.987,4.137,29.8,29.8,0,0,0-.592,4.184,2.127,2.127,0,0,0,.711,1.8,6.756,6.756,0,0,0,2.823,1,6.854,6.854,0,0,0,3.006.112" transform="translate(-347.629 -21.213)" fill="#def205"/>
    <path id="Path_7" data-name="Path 7" d="M509.08,59q-1.117-.529-1.91-.991l.422-1.086q1.247.7,2.132,1.124t2.046.877a5.209,5.209,0,0,0,2.026.457,1.629,1.629,0,0,0,1.192-.525,5.014,5.014,0,0,0,.823-1.493,7.04,7.04,0,0,0,.493-1.7,1.043,1.043,0,0,0-.231-.853,4.048,4.048,0,0,0-1.016-.672l-3.181-1.672a3.133,3.133,0,0,1-1.7-1.7,4.515,4.515,0,0,1,.416-2.675,5.079,5.079,0,0,1,1.5-2.3,2.659,2.659,0,0,1,1.931-.511,11.12,11.12,0,0,1,2.716.757q.844.33,1.811.816a13.961,13.961,0,0,1,1.591.912l-.411,1.059a21.161,21.161,0,0,0-3.719-1.852,7.48,7.48,0,0,0-1.8-.5,1.856,1.856,0,0,0-1.323.352,3.38,3.38,0,0,0-1.051,1.572,5.453,5.453,0,0,0-.418,1.545,1.185,1.185,0,0,0,.244.858,3.328,3.328,0,0,0,.979.688l3.1,1.641a4.975,4.975,0,0,1,1.48,1.082,1.875,1.875,0,0,1,.377,1.337A8.079,8.079,0,0,1,517,57.823a5.19,5.19,0,0,1-1.349,2.142,2.627,2.627,0,0,1-1.828.6,8.472,8.472,0,0,1-2.675-.665q-.95-.372-2.067-.9" transform="translate(-394.228 -35.147)" fill="#def205"/>
    <path id="Path_8" data-name="Path 8" d="M560.54,61.422,567.463,48.7l1.119.613-6.923,12.724Zm9.1-16.906.909-1.671,1.268.695-.91,1.671Z" transform="translate(-435.712 -33.269)" fill="#def205"/>
    <path id="Path_9" data-name="Path 9" d="M588.225,88.975l7.53-11.017-2.172-1.5.641-.938,2.172,1.5,2.371-3.469,1.051.723-2.371,3.469,2.523,1.736-.641.938-2.523-1.737L589.276,89.7Z" transform="translate(-457.233 -57.113)" fill="#def205"/>
    <path id="Path_10" data-name="Path 10" d="M615.6,106.826l9.331-11.067.973.826-9.331,11.067Zm12.3-14.724,1.226-1.454,1.1.936-1.226,1.454Z" transform="translate(-478.514 -70.389)" fill="#def205"/>
    <path id="Path_11" data-name="Path 11" d="M646.768,145.626l7.283-13.514.9.989-6.438,11.784.1.105,12.3-5.3.876.968-14.1,5.982Z" transform="translate(-502.738 -102.586)" fill="#def205"/>
    <path id="Path_12" data-name="Path 12" d="M687.891,205.381l-4.9-7.886a17.885,17.885,0,0,0-3.046,2.243,2.345,2.345,0,0,0-.761,1.917,7.163,7.163,0,0,0,1.193,2.8q.495.8,1.228,1.761t1.333,1.661l-.961.6a14.262,14.262,0,0,1-1.27-1.533q-.736-1-1.4-2.057a8.138,8.138,0,0,1-1.406-3.442,3.167,3.167,0,0,1,1-2.451,20.708,20.708,0,0,1,3.75-2.8,24.442,24.442,0,0,1,4.106-2.2,3.124,3.124,0,0,1,2.594.118,7.765,7.765,0,0,1,2.6,2.863,6.578,6.578,0,0,1,1.224,3.2,3.048,3.048,0,0,1-1.093,2.243,27.208,27.208,0,0,1-3.8,2.716Zm1.214-10.075a2.087,2.087,0,0,0-1.89-.14,18.083,18.083,0,0,0-3.314,1.757l4.228,6.8.433-.271a12.818,12.818,0,0,0,2.711-2.083,2.1,2.1,0,0,0,.624-1.681,6.147,6.147,0,0,0-.956-2.182,7.277,7.277,0,0,0-1.836-2.2" transform="translate(-526.934 -150.466)" fill="#def205"/>
    <path id="Path_38" data-name="Path 38" d="M0,.021,19.5,0V1.335L0,1.357Z" transform="translate(159.276 68.37) rotate(-18.881)" fill="#def205"/>
    <path id="Path_13" data-name="Path 13" d="M736.606,340.8a14.239,14.239,0,0,0,3.058-.648,1.831,1.831,0,0,0,1.161-1.057,5.2,5.2,0,0,0,.042-2.185,3.846,3.846,0,0,0-1.021-2.445,3,3,0,0,0-1.981-.727,24.118,24.118,0,0,0-3.464.272l-7.414.981-.167-1.268,8.705-1.151a14.215,14.215,0,0,0,3.057-.648,1.821,1.821,0,0,0,1.159-1.071,5.22,5.22,0,0,0,.043-2.171,3.746,3.746,0,0,0-1.065-2.454,3.165,3.165,0,0,0-2.039-.734,23.361,23.361,0,0,0-3.366.259l-7.414.98-.166-1.268,14.321-1.894.141,1.071-2.179.374.018.141a3.188,3.188,0,0,1,1.916.994,4.852,4.852,0,0,1,1.028,2.717,5.308,5.308,0,0,1-.2,2.822,2.892,2.892,0,0,1-1.7,1.443l.019.141a3.284,3.284,0,0,1,1.923,1.05,5.062,5.062,0,0,1,1.036,2.773,5.289,5.289,0,0,1-.2,2.75,2.745,2.745,0,0,1-1.54,1.437,13.487,13.487,0,0,1-3.245.744l-9.014,1.192-.167-1.268Z" transform="translate(-564.121 -251.258)" fill="#def205"/>
    <path id="Path_14" data-name="Path 14" d="M728.708,430.048l-.125,1.073-2.2-.173-.013.113a3,3,0,0,1,1.738,1.849,7.242,7.242,0,0,1,.162,2.9,6.516,6.516,0,0,1-.973,3.091,3.231,3.231,0,0,1-2.3,1.175,28.841,28.841,0,0,1-9.312-1.092A3.238,3.238,0,0,1,713.7,437.3a6.532,6.532,0,0,1-.237-3.233,6.69,6.69,0,0,1,.837-2.778,2.863,2.863,0,0,1,1.861-1.284l.016-.141-7.512-.88.148-1.271Zm-13.934,6.522a2.343,2.343,0,0,0,1.56,1.3,30.645,30.645,0,0,0,8.271.969,2.337,2.337,0,0,0,1.816-.9,6.374,6.374,0,0,0,.738-2.661,5.044,5.044,0,0,0-.233-2.531,2.715,2.715,0,0,0-1.5-1.45,7.572,7.572,0,0,0-1.655-.48q-.921-.165-2.384-.337a17.44,17.44,0,0,0-3.859-.166,3.182,3.182,0,0,0-2.008,1.081,4.71,4.71,0,0,0-.852,2.419,6.372,6.372,0,0,0,.106,2.76" transform="translate(-550.855 -332.127)" fill="#def205"/>
    <path id="Path_15" data-name="Path 15" d="M714.036,496.514a2.547,2.547,0,0,1,1.618-1,5.556,5.556,0,0,1,2.614.342,6.9,6.9,0,0,1,2.262,1.11,2.273,2.273,0,0,1,.832,1.526,5.974,5.974,0,0,1-.374,2.4q-.541,1.676-1.715,4.94l1.158.377a9.769,9.769,0,0,0,2.885.61,1.744,1.744,0,0,0,1.458-.736,10.045,10.045,0,0,0,1.107-2.554q.271-.838.543-2.049t.356-1.931l1.1.359a24.681,24.681,0,0,1-1.057,4.378,8.687,8.687,0,0,1-1.422,2.929,2.559,2.559,0,0,1-1.945.906,10.66,10.66,0,0,1-3.315-.66l-8.838-2.875.323-1,2.137.575.035-.108a2.938,2.938,0,0,1-1.335-2.227,7.906,7.906,0,0,1,.433-2.907,8.213,8.213,0,0,1,1.136-2.409m-.592,5.38a2.17,2.17,0,0,0,.8,1.711,7.116,7.116,0,0,0,1.346.9,11.906,11.906,0,0,0,1.739.7l1.024.333,1.511-4.678a6.186,6.186,0,0,0,.379-1.864,1.362,1.362,0,0,0-.546-1.075,5.95,5.95,0,0,0-1.8-.839,4.914,4.914,0,0,0-1.906-.321,1.634,1.634,0,0,0-1.155.67,6.928,6.928,0,0,0-.915,2,8.557,8.557,0,0,0-.481,2.458" transform="translate(-552.906 -384.738)" fill="#def205"/>
    <path id="Path_16" data-name="Path 16" d="M687.106,563.545a17.288,17.288,0,0,1,.763-1.653,6.324,6.324,0,0,1,2.24-2.684,3.382,3.382,0,0,1,2.628-.208,22.738,22.738,0,0,1,4.1,1.82,19.578,19.578,0,0,1,3.9,2.546A3.453,3.453,0,0,1,702,565.711a6.284,6.284,0,0,1-.92,3.1,17,17,0,0,1-.925,1.534,13.928,13.928,0,0,1-.944,1.267l-1-.534q.431-.511.924-1.229a14.054,14.054,0,0,0,.826-1.346,5.221,5.221,0,0,0,.78-2.562,2.639,2.639,0,0,0-1.05-1.832,28.285,28.285,0,0,0-7.147-3.8,2.567,2.567,0,0,0-2.1.17,5.609,5.609,0,0,0-1.682,2.145,12.776,12.776,0,0,0-.658,1.484q-.312.831-.48,1.45l-1.025-.547a12.605,12.605,0,0,1,.505-1.468" transform="translate(-533.701 -433.94)" fill="#def205"/>
    <path id="Path_17" data-name="Path 17" d="M671.623,603.265l10.793,7.821,1.542-2.144.919.666-1.542,2.143,3.4,2.463-.746,1.037-3.4-2.463-1.791,2.489-.918-.666,1.791-2.489L670.877,604.3Z" transform="translate(-521.478 -468.443)" fill="#def205"/>
    <path id="Path_18" data-name="Path 18" d="M612.086,654.222a2.836,2.836,0,0,1,2.4.614,24.674,24.674,0,0,1,3.373,3.464,24.972,24.972,0,0,1,2.887,3.9,2.907,2.907,0,0,1,.234,2.509,11.883,11.883,0,0,1-5.646,4.834,2.88,2.88,0,0,1-2.432-.627,35.936,35.936,0,0,1-6.26-7.363,2.854,2.854,0,0,1-.216-2.487,8.692,8.692,0,0,1,2.457-2.869,8.56,8.56,0,0,1,3.2-1.974m-4.433,5.122a2.122,2.122,0,0,0,.26,1.926,45.136,45.136,0,0,0,5.478,6.444,2.145,2.145,0,0,0,1.864.572,6.69,6.69,0,0,0,2.566-1.58,6.619,6.619,0,0,0,1.938-2.275,2.164,2.164,0,0,0-.269-1.937,45.2,45.2,0,0,0-5.478-6.444,2.111,2.111,0,0,0-1.844-.57,6.767,6.767,0,0,0-2.546,1.582,6.892,6.892,0,0,0-1.968,2.283" transform="translate(-471.233 -507.961)" fill="#def205"/>
    <path id="Path_19" data-name="Path 19" d="M550.4,702.054a12.848,12.848,0,0,0,1.75,2.6,1.836,1.836,0,0,0,1.517.633,6.543,6.543,0,0,0,2.275-.9,4.284,4.284,0,0,0,2.086-2.026,3.16,3.16,0,0,0,0-2.214,21.585,21.585,0,0,0-1.459-3.04l-3.635-6.558,1.114-.622,7.023,12.668-.941.525-1.148-1.9-.1.055a3.3,3.3,0,0,1-.333,2.235,5.822,5.822,0,0,1-2.393,2.084,6.1,6.1,0,0,1-2.83.946,2.765,2.765,0,0,1-1.977-.848,12.444,12.444,0,0,1-1.915-2.753l-4.421-7.974,1.114-.622Z" transform="translate(-423.648 -535.74)" fill="#def205"/>
    <path id="Path_20" data-name="Path 20" d="M463.332,705.389l.247,1.11q-1.889.248-3.99.719a6.178,6.178,0,0,0-2.884,1.257,2.745,2.745,0,0,0-.853,2.041,16.984,16.984,0,0,0,.5,3.571l.136.61.111-.025a3.1,3.1,0,0,1,.94-1.841,5.792,5.792,0,0,1,2.836-1.276,6.176,6.176,0,0,1,3.009-.106,2.723,2.723,0,0,1,1.645,1.394,13.305,13.305,0,0,1,1.052,3.23l1.961,8.823-1.244.279-1.912-8.6a12.682,12.682,0,0,0-.935-2.965,1.837,1.837,0,0,0-1.276-1.04,6.522,6.522,0,0,0-2.434.21,4.331,4.331,0,0,0-2.577,1.334,3.1,3.1,0,0,0-.634,2.108,21.71,21.71,0,0,0,.537,3.331l1.628,7.325-1.244.278-2.719-12.235a19.475,19.475,0,0,1-.6-4.643,3.684,3.684,0,0,1,1.081-2.645,7.222,7.222,0,0,1,3.395-1.5,42,42,0,0,1,4.218-.74" transform="translate(-353.39 -547.744)" fill="#def205"/>
    <path id="Path_21" data-name="Path 21" d="M398.964,741.6a2.85,2.85,0,0,1,1.5,1.98,36.121,36.121,0,0,1,.343,9.673,2.9,2.9,0,0,1-1.37,2.111,8.365,8.365,0,0,1-3.673.729,8.453,8.453,0,0,1-3.743-.464,2.9,2.9,0,0,1-1.517-2.008,25.123,25.123,0,0,1-.5-4.832,24.863,24.863,0,0,1,.154-4.841,2.844,2.844,0,0,1,1.372-2.082,8.634,8.634,0,0,1,3.7-.715,8.531,8.531,0,0,1,3.729.45m-6.644,1.247a2.115,2.115,0,0,0-.989,1.671,45.362,45.362,0,0,0,.3,8.466,2.158,2.158,0,0,0,1.106,1.61,6.669,6.669,0,0,0,2.989.362,6.583,6.583,0,0,0,2.927-.574,2.158,2.158,0,0,0,.989-1.685,30.09,30.09,0,0,0,.047-4.254,29.777,29.777,0,0,0-.348-4.211,2.124,2.124,0,0,0-1.092-1.6,6.744,6.744,0,0,0-2.974-.349,6.857,6.857,0,0,0-2.956.561" transform="translate(-303.128 -575.501)" fill="#def205"/>
    <path id="Path_22" data-name="Path 22" d="M317.775,735.552l.111.02a3.3,3.3,0,0,1,1.652-1.524,5.716,5.716,0,0,1,3.154-.1,6.179,6.179,0,0,1,2.817,1.066,2.784,2.784,0,0,1,1,1.911,12.5,12.5,0,0,1-.249,3.348l-1.594,8.983-1.255-.224,1.539-8.676a12.879,12.879,0,0,0,.281-3.126,1.845,1.845,0,0,0-.778-1.453,6.524,6.524,0,0,0-2.327-.748,4.261,4.261,0,0,0-2.892.248,3.149,3.149,0,0,0-1.4,1.714,21.7,21.7,0,0,0-.784,3.281l-1.311,7.388-1.255-.224,2.532-14.273,1.06.19Z" transform="translate(-244.453 -569.312)" fill="#def205"/>
    <path id="Path_23" data-name="Path 23" d="M265.323,738.939l-.988-.35.873-2.826-.133-.048a3.761,3.761,0,0,1-2.272,1.849,5.441,5.441,0,0,1-2.951-.321l.434-1.233a4.635,4.635,0,0,0,2.822.261,3.563,3.563,0,0,0,1.924-1.459,13.348,13.348,0,0,0,1.5-3.161l2.394-6.809,1.2.426Z" transform="translate(-201.985 -562.849)" fill="#def205"/>
    <path id="Path_24" data-name="Path 24" d="M202.731,681.263,192.17,697.7l-1.119-.724,9.9-15.408-6.974-4.514.66-1.027Z" transform="translate(-148.505 -524.942)" fill="#def205"/>
    <path id="Path_25" data-name="Path 25" d="M133.476,678.372l-1.227,1.452-1.1-.937,1.227-1.452Zm12.319-14.711-9.343,11.057-.972-.828,9.343-11.057Z" transform="translate(-101.942 -514.699)" fill="#def205"/>
    <path id="Path_26" data-name="Path 26" d="M113.36,633.445l-7.3,13.507-.894-.99,6.45-11.777-.1-.105-12.31,5.291-.875-.969,14.107-5.967Z" transform="translate(-76.44 -491.093)" fill="#def205"/>
    <path id="Path_27" data-name="Path 27" d="M71.381,572.983l4.9,7.891a17.894,17.894,0,0,0,3.048-2.239,2.347,2.347,0,0,0,.763-1.917,7.164,7.164,0,0,0-1.19-2.806q-.494-.8-1.226-1.762t-1.332-1.663l.962-.6a14.3,14.3,0,0,1,1.269,1.535q.735,1,1.394,2.059a8.137,8.137,0,0,1,1.4,3.443,3.166,3.166,0,0,1-1,2.449,20.711,20.711,0,0,1-3.753,2.8,24.416,24.416,0,0,1-4.108,2.2,3.122,3.122,0,0,1-2.594-.12,7.766,7.766,0,0,1-2.6-2.865,6.58,6.58,0,0,1-1.221-3.205,3.051,3.051,0,0,1,1.1-2.242A27.207,27.207,0,0,1,71,573.224Zm-1.225,10.073a2.086,2.086,0,0,0,1.89.142,18.076,18.076,0,0,0,3.316-1.754l-4.222-6.805-.433.271a12.829,12.829,0,0,0-2.713,2.08,2.1,2.1,0,0,0-.626,1.68,6.146,6.146,0,0,0,.954,2.183,7.274,7.274,0,0,0,1.834,2.2" transform="translate(-51.376 -442.524)" fill="#def205"/>
    <path id="Path_28" data-name="Path 28" d="M21.644,489.269,2.9,494.629,0,484.4l1.171-.335,2.538,8.939,7.518-2.15L9,483.013l1.171-.335,2.228,7.846,7.709-2.2-2.539-8.939,1.171-.335Z" transform="translate(0 -371.984)" fill="#def205"/>
    <path id="Path_29" data-name="Path 29" d="M27.927,419.352,22.1,424.177l.01.113,6.585,3.754.13,1.473-7.751-4.393-6.654,5.5-.134-1.529,5.595-4.6-.012-.141-6.314-3.579-.132-1.5,7.482,4.246,6.893-5.69Z" transform="translate(-10.43 -324.445)" fill="#def205"/>
    <path id="Path_30" data-name="Path 30" d="M13.831,362.314l.108-1.075,2.207.138.011-.113a3,3,0,0,1-1.766-1.823,7.242,7.242,0,0,1-.206-2.892,6.52,6.52,0,0,1,.926-3.106,3.229,3.229,0,0,1,2.286-1.21,21.024,21.024,0,0,1,4.7.093,21.026,21.026,0,0,1,4.625.856,3.234,3.234,0,0,1,2,1.646,6.523,6.523,0,0,1,.286,3.229,6.694,6.694,0,0,1-.794,2.791,2.867,2.867,0,0,1-1.841,1.313l-.014.141,7.524.765-.128,1.273Zm13.833-6.737a2.342,2.342,0,0,0-1.58-1.275,21.386,21.386,0,0,0-4.114-.7,21.382,21.382,0,0,0-4.171-.139,2.339,2.339,0,0,0-1.8.931,6.372,6.372,0,0,0-.7,2.672,5.045,5.045,0,0,0,.271,2.527,2.716,2.716,0,0,0,1.521,1.426,7.57,7.57,0,0,0,1.662.455q.924.151,2.389.3a17.417,17.417,0,0,0,3.861.107A3.179,3.179,0,0,0,27,360.767a4.708,4.708,0,0,0,.815-2.431,6.372,6.372,0,0,0-.149-2.758" transform="translate(-10.751 -273.441)" fill="#def205"/>
    <path id="Path_31" data-name="Path 31" d="M37.767,283.037l-2.711,8.888a17.868,17.868,0,0,0,3.685.835,2.33,2.33,0,0,0,1.941-.682,7.165,7.165,0,0,0,1.326-2.744q.274-.9.518-2.085t.374-2.1l1.083.333a14.313,14.313,0,0,1-.319,1.968q-.266,1.211-.631,2.407a8.131,8.131,0,0,1-1.666,3.323,3.144,3.144,0,0,1-2.5.853,20.631,20.631,0,0,1-4.567-1,24.419,24.419,0,0,1-4.351-1.664,3.144,3.144,0,0,1-1.613-2.042,7.805,7.805,0,0,1,.448-3.846,6.569,6.569,0,0,1,1.606-3.029,3.025,3.025,0,0,1,2.4-.644,27.093,27.093,0,0,1,4.538,1.1ZM29.4,288.729a2.1,2.1,0,0,0,1.135,1.523,18.053,18.053,0,0,0,3.5,1.357l2.338-7.665-.487-.15a12.768,12.768,0,0,0-3.345-.686,2.085,2.085,0,0,0-1.674.63,6.146,6.146,0,0,0-1.013,2.156,7.305,7.305,0,0,0-.45,2.835" transform="translate(-21.954 -218.807)" fill="#def205"/>
    <path id="Path_32" data-name="Path 32" d="M49.673,233.015l.459-.945,2.7,1.193.062-.128a3.774,3.774,0,0,1-1.57-2.476,5.487,5.487,0,0,1,.655-2.905l1.171.573a4.68,4.68,0,0,0-.58,2.783,3.575,3.575,0,0,0,1.224,2.085,13.274,13.274,0,0,0,2.957,1.858l6.467,3.164-.559,1.15Z" transform="translate(-38.611 -176.854)" fill="#def205"/>
    <path id="Path_33" data-name="Path 33" d="M48.072,191.408l-1.61-1.008.764-1.23,1.61,1.008ZM64.365,201.5l-12.258-7.67.674-1.085,12.258,7.67Z" transform="translate(-36.115 -146.893)" fill="#def205"/>
    <path id="Path_34" data-name="Path 34" d="M107.586,155.329l-5.931,7.139a17.9,17.9,0,0,0,3.075,2.2,2.326,2.326,0,0,0,2.053.126,7.135,7.135,0,0,0,2.281-2.014q.6-.721,1.282-1.721t1.156-1.79l.87.728a14.275,14.275,0,0,1-1.054,1.69q-.713,1.013-1.511,1.974a8.1,8.1,0,0,1-2.819,2.416,3.14,3.14,0,0,1-2.631-.184,20.7,20.7,0,0,1-3.824-2.7,24.5,24.5,0,0,1-3.368-3.225,3.153,3.153,0,0,1-.7-2.51,7.787,7.787,0,0,1,1.9-3.372,6.542,6.542,0,0,1,2.65-2.168,3.023,3.023,0,0,1,2.464.341,27.175,27.175,0,0,1,3.76,2.776Zm-9.916,1.992a2.107,2.107,0,0,0,.458,1.845,18.146,18.146,0,0,0,2.7,2.61l5.115-6.157-.392-.328a12.826,12.826,0,0,0-2.819-1.933,2.085,2.085,0,0,0-1.786-.07,6.126,6.126,0,0,0-1.767,1.594,7.287,7.287,0,0,0-1.509,2.438" transform="translate(-74.953 -117.868)" fill="#def205"/>
    <path id="Path_35" data-name="Path 35" d="M152.292,104.864a12.817,12.817,0,0,0-2.17-2.26,1.835,1.835,0,0,0-1.6-.361,6.549,6.549,0,0,0-2.087,1.276,4.293,4.293,0,0,0-1.707,2.356,3.16,3.16,0,0,0,.376,2.182,21.6,21.6,0,0,0,1.959,2.743l4.706,5.831-.99.805-9.092-11.265.836-.68,1.456,1.669.088-.072a3.3,3.3,0,0,1-.056-2.259,5.833,5.833,0,0,1,2-2.467,6.107,6.107,0,0,1,2.626-1.421,2.765,2.765,0,0,1,2.093.493,12.43,12.43,0,0,1,2.359,2.381l5.722,7.091-.99.805Z" transform="translate(-110.131 -78.352)" fill="#def205"/>
    <path id="Path_36" data-name="Path 36" d="M220.627,75.063a17.261,17.261,0,0,1-1.542.961,6.289,6.289,0,0,1-3.34,1.011,3.387,3.387,0,0,1-2.311-1.274A22.852,22.852,0,0,1,211,71.981a19.687,19.687,0,0,1-1.866-4.274,3.46,3.46,0,0,1,.23-2.655,6.255,6.255,0,0,1,2.463-2.084,16.984,16.984,0,0,1,1.613-.773,13.759,13.759,0,0,1,1.482-.54l.545,1q-.64.19-1.445.519a13.889,13.889,0,0,0-1.426.671,5.19,5.19,0,0,0-2.053,1.712,2.646,2.646,0,0,0-.123,2.11,20.323,20.323,0,0,0,1.671,3.651,20.17,20.17,0,0,0,2.228,3.458,2.573,2.573,0,0,0,1.844,1.012,5.583,5.583,0,0,0,2.579-.867,12.661,12.661,0,0,0,1.361-.879q.715-.523,1.194-.948l.558,1.022a12.536,12.536,0,0,1-1.225.95" transform="translate(-162.441 -47.876)" fill="#def205"/>
    <path id="Path_37" data-name="Path 37" d="M274.149,45.954l-8.771,2.986a18,18,0,0,0,1.479,3.489,2.332,2.332,0,0,0,1.686,1.182,7.1,7.1,0,0,0,2.993-.524q.885-.3,1.989-.8t1.916-.923l.364,1.077a14.206,14.206,0,0,1-1.778.89q-1.135.491-2.315.893a8.067,8.067,0,0,1-3.66.586A3.15,3.15,0,0,1,265.9,53.28a20.786,20.786,0,0,1-1.859-4.3,24.613,24.613,0,0,1-1.2-4.515,3.152,3.152,0,0,1,.708-2.507,7.742,7.742,0,0,1,3.371-1.883,6.519,6.519,0,0,1,3.388-.463,3.036,3.036,0,0,1,1.925,1.581A27.338,27.338,0,0,1,274,45.524Zm-9.5-3.491a2.106,2.106,0,0,0-.568,1.814,18.233,18.233,0,0,0,.946,3.64l7.564-2.575-.164-.485a12.885,12.885,0,0,0-1.4-3.125,2.09,2.09,0,0,0-1.488-.995,6.093,6.093,0,0,0-2.335.435,7.248,7.248,0,0,0-2.555,1.29" transform="translate(-204.292 -30.694)" fill="#def205"/>
  </g>
</svg>
