<svg xmlns="http://www.w3.org/2000/svg" width="45.109" height="44.374" viewBox="0 0 45.109 44.374">
  <g id="Group_15" data-name="Group 15" transform="translate(0 0)">
    <rect id="Rectangle_27" data-name="Rectangle 27" width="16.232" height="5.062" transform="translate(28.878 19.653)" fill="#def203"/>
    <rect id="Rectangle_28" data-name="Rectangle 28" width="16.232" height="5.062" transform="translate(0 19.655)" fill="#def203"/>
    <rect id="Rectangle_29" data-name="Rectangle 29" width="16.232" height="5.062" transform="matrix(0.809, -0.588, 0.588, 0.809, 25.903, 16.36)" fill="#def203"/>
    <rect id="Rectangle_30" data-name="Rectangle 30" width="16.232" height="5.062" transform="translate(3.1 33.456) rotate(-36)" fill="#def203"/>
    <rect id="Rectangle_31" data-name="Rectangle 31" width="16.232" height="5.062" transform="translate(22.179 15.437) rotate(-72)" fill="#def203"/>
    <rect id="Rectangle_32" data-name="Rectangle 32" width="16.232" height="5.062" transform="translate(13.102 42.809) rotate(-72.001)" fill="#def203"/>
    <rect id="Rectangle_33" data-name="Rectangle 33" width="5.062" height="16.232" transform="translate(13.103 1.564) rotate(-18)" fill="#def203"/>
    <rect id="Rectangle_34" data-name="Rectangle 34" width="5.062" height="16.232" transform="translate(22.179 28.937) rotate(-18)" fill="#def203"/>
    <rect id="Rectangle_35" data-name="Rectangle 35" width="5.062" height="16.232" transform="matrix(0.588, -0.809, 0.809, 0.588, 3.1, 10.916)" fill="#def203"/>
    <rect id="Rectangle_36" data-name="Rectangle 36" width="5.062" height="16.232" transform="matrix(0.588, -0.809, 0.809, 0.588, 25.903, 28.008)" fill="#def203"/>
  </g>
</svg>
